G04 DipTrace 3.0.0.2*
G04 ethernethat.GBS*
%MOMM*%
G04 #@! TF.FileFunction,Soldermask,Bot*
G04 #@! TF.Part,Single*
%ADD36C,2.75*%
%ADD37C,3.25*%
%ADD47R,0.8X1.3*%
%ADD51R,1.4X1.65*%
%ADD53C,3.2*%
%ADD55C,2.0*%
%ADD57R,2.0X2.0*%
%ADD59C,1.7*%
%ADD61R,1.7X1.7*%
%ADD63R,1.5X1.7*%
%ADD65R,1.7X1.5*%
%FSLAX35Y35*%
G04*
G71*
G90*
G75*
G01*
G04 BotMask*
%LPD*%
D65*
X-39000Y2121000D3*
Y1931000D3*
X294333Y2125333D3*
Y1935333D3*
X615333Y1522667D3*
Y1712667D3*
X294000Y1508000D3*
Y1698000D3*
D63*
X3771000Y2133667D3*
X3581000D3*
D36*
X49667Y349000D3*
Y2649333D3*
X5850000D3*
X5849667Y348667D3*
D61*
X534333Y2527333D3*
D59*
Y2781333D3*
X788333Y2527333D3*
Y2781333D3*
X1042333Y2527333D3*
Y2781333D3*
X1296333Y2527333D3*
Y2781333D3*
X1550333Y2527333D3*
Y2781333D3*
X1804333Y2527333D3*
Y2781333D3*
X2058333Y2527333D3*
Y2781333D3*
X2312333Y2527333D3*
Y2781333D3*
X2566333Y2527333D3*
Y2781333D3*
X2820333Y2527333D3*
Y2781333D3*
X3074333Y2527333D3*
Y2781333D3*
X3328333Y2527333D3*
Y2781333D3*
X3582333Y2527333D3*
Y2781333D3*
X3836333Y2527333D3*
Y2781333D3*
X4090333Y2527333D3*
Y2781333D3*
X4344333Y2527333D3*
Y2781333D3*
X4598333Y2527333D3*
Y2781333D3*
X4852333Y2527333D3*
Y2781333D3*
X5106333Y2527333D3*
Y2781333D3*
X5360333Y2527333D3*
Y2781333D3*
D57*
X4634333Y1037667D3*
D55*
X4380333Y1164697D3*
X4634333Y1291697D3*
X4380333Y1418697D3*
X4634333Y1545697D3*
X4380333Y1672697D3*
X4634333Y1799697D3*
X4380333Y1926667D3*
D53*
X5574333Y707667D3*
Y2256667D3*
D37*
X5269333Y910667D3*
Y2053667D3*
D51*
X978000Y855333D3*
X1148000D3*
D63*
X971333Y1205000D3*
X1161333D3*
X968667Y1530000D3*
X1158667D3*
D65*
X4633667Y680667D3*
Y490667D3*
X4317333Y473667D3*
Y663667D3*
X609000Y2144000D3*
Y1954000D3*
X2874667Y999000D3*
Y809000D3*
X2553333Y1001333D3*
Y811333D3*
D47*
X862333Y2149333D3*
X957333D3*
X1052333D3*
Y1879333D3*
X862333D3*
M02*
