G04 DipTrace 3.0.0.2*
G04 ethernethat.GTO*
%MOMM*%
G04 #@! TF.FileFunction,Legend,Top*
G04 #@! TF.Part,Single*
%ADD10C,0.254*%
%ADD12C,0.076*%
%ADD31O,1.20012X1.20023*%
%ADD67C,0.15686*%
%ADD68C,0.19608*%
%FSLAX35Y35*%
G04*
G71*
G90*
G75*
G01*
G04 TopSilk*
%LPD*%
X2961613Y2083050D2*
D10*
Y2212950D1*
X4129053Y237283D2*
Y107383D1*
X1678383Y429387D2*
X1808283D1*
X2698717Y432053D2*
X2828617D1*
X1670950Y1354613D2*
X1541050D1*
X3458050Y921280D2*
X3587950D1*
X3096717Y924947D2*
X3226617D1*
X5487333Y2400333D2*
Y2908333D1*
X407333Y2400333D2*
Y2908333D1*
X5487333D1*
X407333Y2400333D2*
X5487333D1*
X6087333Y662135D2*
X5762391D1*
X4787379D2*
X5382393D1*
X4797423D2*
X4227333D1*
Y2302198D1*
X4797423D1*
X4787379D2*
X5382393D1*
X5762391D2*
X6087333D1*
Y662135D1*
X2783833Y2030692D2*
X1743833D1*
X2783833Y1550621D2*
X1743833D1*
Y2030692D2*
Y1550621D1*
X2783833Y2030692D2*
Y1860678D1*
Y1720635D2*
Y1550621D1*
Y1860678D2*
G03X2783833Y1720635I-9427J-70022D01*
G01*
X2489322Y932712D2*
X2599333D1*
Y252649D1*
X2489322D1*
X2479321D1*
X2029349Y242704D2*
X1919338D1*
Y922669D1*
X2029349D1*
X2039350D1*
D31*
X1929339Y1022655D3*
G36*
X-267667Y2101000D2*
X1369667D1*
Y662667D1*
X-267667D1*
Y2101000D1*
G37*
X3743527Y533333D2*
D12*
X3819527D1*
X3853727D2*
X3963927D1*
X4005727D2*
X4017127D1*
X4104527D2*
X4115927D1*
X4188127D2*
X4264127D1*
X4309727D2*
X4397127D1*
X4465527D2*
X4476927D1*
X4564327D2*
X4575727D1*
X4647927D2*
X4723927D1*
X4758127D2*
X4868327D1*
X4982327D2*
X4993727D1*
X5081127D2*
X5092527D1*
X5191327D2*
X5202727D1*
X5290127D2*
X5400327D1*
X3741787Y529533D2*
X3821266D1*
X3850833D2*
X3967405D1*
X4002688D2*
X4020165D1*
X4101488D2*
X4118965D1*
X4186387D2*
X4265866D1*
X4306688D2*
X4398866D1*
X4462488D2*
X4479980D1*
X4561288D2*
X4578765D1*
X4646187D2*
X4725666D1*
X4755233D2*
X4871805D1*
X4979288D2*
X4996765D1*
X5078088D2*
X5095565D1*
X5188288D2*
X5205765D1*
X5287233D2*
X5403805D1*
X3740841Y525733D2*
X3822213D1*
X3848624D2*
X3969914D1*
X4000164D2*
X4022689D1*
X4098964D2*
X4121489D1*
X4185441D2*
X4266813D1*
X4304164D2*
X4399813D1*
X4459964D2*
X4482187D1*
X4558764D2*
X4581289D1*
X4645241D2*
X4726613D1*
X4753024D2*
X4874314D1*
X4976764D2*
X4999289D1*
X5075564D2*
X5098089D1*
X5185764D2*
X5208289D1*
X5285024D2*
X5406314D1*
X3740510Y521933D2*
X3822544D1*
X3848899D2*
X3969961D1*
X3999441D2*
X4023412D1*
X4098241D2*
X4122212D1*
X4185110D2*
X4267144D1*
X4303441D2*
X4400144D1*
X4459241D2*
X4483672D1*
X4558041D2*
X4582012D1*
X4644910D2*
X4726944D1*
X4753299D2*
X4874361D1*
X4976041D2*
X5000012D1*
X5074841D2*
X5098812D1*
X5185041D2*
X5209012D1*
X5285299D2*
X5406361D1*
X3741828Y518133D2*
X3821225D1*
X3851132D2*
X3967324D1*
X4000752D2*
X4022261D1*
X4099392D2*
X4120902D1*
X4186428D2*
X4265825D1*
X4304752D2*
X4398825D1*
X4460552D2*
X4483543D1*
X4559192D2*
X4580702D1*
X4646228D2*
X4725625D1*
X4755532D2*
X4871724D1*
X4977352D2*
X4998861D1*
X5075992D2*
X5097502D1*
X5186352D2*
X5207702D1*
X5287532D2*
X5403724D1*
X3743527Y514333D2*
X3819527D1*
X3853727D2*
X3963927D1*
X4003005D2*
X4020695D1*
X4100959D2*
X4118648D1*
X4188127D2*
X4264127D1*
X4307005D2*
X4397127D1*
X4462805D2*
X4482803D1*
X4560759D2*
X4578448D1*
X4647927D2*
X4723927D1*
X4758127D2*
X4868327D1*
X4979605D2*
X4997295D1*
X5077559D2*
X5095248D1*
X5188605D2*
X5205448D1*
X5290127D2*
X5400327D1*
X3903286Y510533D2*
X3918914D1*
X4005727D2*
X4019301D1*
X4102352D2*
X4115927D1*
X4309727D2*
X4325514D1*
X4465527D2*
X4481765D1*
X4562152D2*
X4575727D1*
X4807686D2*
X4823314D1*
X4982327D2*
X4995901D1*
X5078952D2*
X5092527D1*
X5191327D2*
X5202727D1*
X5339686D2*
X5355314D1*
X3720727Y506733D2*
X3732127D1*
X3900137D2*
X3919841D1*
X4003385D2*
X4020057D1*
X4101597D2*
X4118268D1*
X4165327D2*
X4176727D1*
X4306673D2*
X4326441D1*
X4412327D2*
X4416127D1*
X4462473D2*
X4480727D1*
X4561397D2*
X4578780D1*
X4625127D2*
X4636527D1*
X4804537D2*
X4824241D1*
X4979985D2*
X4996657D1*
X5078197D2*
X5094868D1*
X5172327D2*
X5183727D1*
X5210327D2*
X5221727D1*
X5336537D2*
X5356241D1*
X3717688Y502933D2*
X3735165D1*
X3897568D2*
X3920677D1*
X4001367D2*
X4021511D1*
X4100143D2*
X4120287D1*
X4162288D2*
X4179765D1*
X4304466D2*
X4327277D1*
X4407534D2*
X4420919D1*
X4460266D2*
X4493367D1*
X4559943D2*
X4580987D1*
X4622088D2*
X4639565D1*
X4801968D2*
X4825077D1*
X4977967D2*
X4998111D1*
X5076743D2*
X5096887D1*
X5169288D2*
X5186765D1*
X5207418D2*
X5225220D1*
X5333968D2*
X5357077D1*
X3715164Y499133D2*
X3737689D1*
X3896842D2*
X3921104D1*
X3999651D2*
X4022797D1*
X4098856D2*
X4122002D1*
X4159764D2*
X4182289D1*
X4302981D2*
X4327704D1*
X4403711D2*
X4424743D1*
X4458781D2*
X4503040D1*
X4558656D2*
X4582472D1*
X4619564D2*
X4642089D1*
X4801242D2*
X4825504D1*
X4976251D2*
X4999397D1*
X5075456D2*
X5098602D1*
X5166764D2*
X5188978D1*
X5205165D2*
X5227774D1*
X5333242D2*
X5357504D1*
X3714441Y495333D2*
X3738412D1*
X3897993D2*
X3919793D1*
X3999247D2*
X4023542D1*
X4098111D2*
X4122407D1*
X4159041D2*
X4183012D1*
X4302939D2*
X4326393D1*
X4402520D2*
X4425934D1*
X4458739D2*
X4511127D1*
X4557911D2*
X4582514D1*
X4618841D2*
X4642812D1*
X4802393D2*
X4824193D1*
X4975847D2*
X5000142D1*
X5074711D2*
X5099007D1*
X5166025D2*
X5190570D1*
X5205222D2*
X5228265D1*
X5334393D2*
X5356193D1*
X3715752Y491533D2*
X3737261D1*
X3899559D2*
X3918147D1*
X4000663D2*
X4022318D1*
X4099335D2*
X4120990D1*
X4160352D2*
X4181861D1*
X4304514D2*
X4324747D1*
X4403294D2*
X4425159D1*
X4460314D2*
X4509359D1*
X4559135D2*
X4580939D1*
X4620152D2*
X4641661D1*
X4803959D2*
X4822547D1*
X4977263D2*
X4998918D1*
X5075935D2*
X5097590D1*
X5167050D2*
X5186257D1*
X5205804D2*
X5227109D1*
X5335959D2*
X5354547D1*
X3718005Y487733D2*
X3735695D1*
X3900952D2*
X3916712D1*
X4002972D2*
X4020717D1*
X4100936D2*
X4118682D1*
X4162605D2*
X4180295D1*
X4306913D2*
X4323312D1*
X4405756D2*
X4422697D1*
X4462713D2*
X4508184D1*
X4560736D2*
X4578540D1*
X4622405D2*
X4640095D1*
X4805352D2*
X4821112D1*
X4979572D2*
X4997317D1*
X5077536D2*
X5095282D1*
X5168527D2*
X5174711D1*
X5206527D2*
X5225527D1*
X5337352D2*
X5353112D1*
X3720727Y483933D2*
X3734301D1*
X3900197D2*
X3917461D1*
X4005727D2*
X4019306D1*
X4102348D2*
X4115927D1*
X4165327D2*
X4178901D1*
X4309727D2*
X4324061D1*
X4408527D2*
X4419927D1*
X4465527D2*
X4480727D1*
X4562148D2*
X4575727D1*
X4625127D2*
X4638701D1*
X4804597D2*
X4821861D1*
X4982327D2*
X4995906D1*
X5078948D2*
X5092527D1*
X5336597D2*
X5353861D1*
X3717688Y480133D2*
X3735057D1*
X3898743D2*
X3918912D1*
X4002688D2*
X4020058D1*
X4101595D2*
X4118965D1*
X4162288D2*
X4179657D1*
X4306688D2*
X4325512D1*
X4405488D2*
X4422980D1*
X4462488D2*
X4482026D1*
X4514927D2*
X4526327D1*
X4561395D2*
X4578780D1*
X4622088D2*
X4639457D1*
X4803143D2*
X4823312D1*
X4979288D2*
X4996658D1*
X5078195D2*
X5095565D1*
X5149527D2*
X5168527D1*
X5229327D2*
X5244527D1*
X5335143D2*
X5355312D1*
X3715164Y476333D2*
X3736511D1*
X3897456D2*
X3920198D1*
X4000164D2*
X4021511D1*
X4100142D2*
X4121489D1*
X4159764D2*
X4181111D1*
X4304164D2*
X4326798D1*
X4402964D2*
X4425549D1*
X4459964D2*
X4483142D1*
X4512033D2*
X4529820D1*
X4559942D2*
X4580987D1*
X4619564D2*
X4640911D1*
X4801856D2*
X4824598D1*
X4976764D2*
X4998111D1*
X5076742D2*
X5098089D1*
X5147787D2*
X5169811D1*
X5227573D2*
X5246266D1*
X5333856D2*
X5356598D1*
X3714441Y472533D2*
X3737812D1*
X3896711D2*
X3920943D1*
X3999441D2*
X4022813D1*
X4098856D2*
X4122271D1*
X4159041D2*
X4182412D1*
X4303382D2*
X4327543D1*
X4402241D2*
X4426613D1*
X4459241D2*
X4483714D1*
X4509824D2*
X4532374D1*
X4558656D2*
X4582472D1*
X4618841D2*
X4642212D1*
X4801111D2*
X4825343D1*
X4976041D2*
X4999413D1*
X5075456D2*
X5098871D1*
X5146841D2*
X5170793D1*
X5226496D2*
X5247213D1*
X5333111D2*
X5357343D1*
X3715592Y468733D2*
X3738602D1*
X3898094D2*
X3919559D1*
X4000592D2*
X4023602D1*
X4098111D2*
X4121500D1*
X4160192D2*
X4183202D1*
X4304153D2*
X4326159D1*
X4403552D2*
X4426225D1*
X4460392D2*
X4483812D1*
X4510099D2*
X4532865D1*
X4557911D2*
X4582514D1*
X4619992D2*
X4643002D1*
X4802494D2*
X4823959D1*
X4977192D2*
X5000202D1*
X5074711D2*
X5098100D1*
X5146510D2*
X5171291D1*
X5226092D2*
X5247544D1*
X5334494D2*
X5355959D1*
X3717159Y464933D2*
X3737913D1*
X3900384D2*
X3917269D1*
X4002159D2*
X4022913D1*
X4099509D2*
X4120113D1*
X4161759D2*
X4182513D1*
X4305541D2*
X4323869D1*
X4405805D2*
X4423434D1*
X4461959D2*
X4482182D1*
X4512332D2*
X4531709D1*
X4559294D2*
X4580939D1*
X4621559D2*
X4642313D1*
X4804784D2*
X4821669D1*
X4978759D2*
X4999513D1*
X5076109D2*
X5096713D1*
X5147828D2*
X5169813D1*
X5226143D2*
X5246225D1*
X5336784D2*
X5353669D1*
X3718552Y461133D2*
X3737081D1*
X3903127D2*
X3914527D1*
X4003552D2*
X4022081D1*
X4101890D2*
X4118182D1*
X4163152D2*
X4181681D1*
X4307471D2*
X4321127D1*
X4408527D2*
X4419927D1*
X4463352D2*
X4479756D1*
X4514927D2*
X4530127D1*
X4561584D2*
X4578540D1*
X4622952D2*
X4641481D1*
X4807527D2*
X4818927D1*
X4980152D2*
X4998681D1*
X5078490D2*
X5094782D1*
X5149527D2*
X5167391D1*
X5227825D2*
X5244527D1*
X5339527D2*
X5350927D1*
X3717797Y457333D2*
X3736435D1*
X3900785D2*
X3917580D1*
X4002797D2*
X4021435D1*
X4104971D2*
X4115927D1*
X4162397D2*
X4181035D1*
X4309727D2*
X4323468D1*
X4462597D2*
X4476927D1*
X4564327D2*
X4575727D1*
X4622197D2*
X4640835D1*
X4805185D2*
X4821980D1*
X4979397D2*
X4998035D1*
X5081571D2*
X5092527D1*
X5144587D2*
X5164292D1*
X5230280D2*
X5249466D1*
X5337185D2*
X5353980D1*
X3716343Y453533D2*
X3796727D1*
X3898767D2*
X3919787D1*
X4001343D2*
X4118965D1*
X4160943D2*
X4241327D1*
X4306688D2*
X4325487D1*
X4347727D2*
X4397127D1*
X4461143D2*
X4479965D1*
X4550749D2*
X4578765D1*
X4620743D2*
X4701127D1*
X4803167D2*
X4824187D1*
X4977943D2*
X5095565D1*
X5140306D2*
X5253747D1*
X5335167D2*
X5356187D1*
X3715056Y449733D2*
X3798451D1*
X3897051D2*
X3921272D1*
X4000056D2*
X4121489D1*
X4159656D2*
X4243051D1*
X4304164D2*
X4327202D1*
X4344248D2*
X4398866D1*
X4459856D2*
X4482489D1*
X4540386D2*
X4581289D1*
X4619456D2*
X4702851D1*
X4801451D2*
X4825672D1*
X4976656D2*
X5098089D1*
X5136884D2*
X5257169D1*
X5333451D2*
X5357672D1*
X3714311Y445933D2*
X3799661D1*
X3896647D2*
X3921314D1*
X3999311D2*
X4122212D1*
X4158911D2*
X4244261D1*
X4303441D2*
X4327607D1*
X4341739D2*
X4400120D1*
X4459111D2*
X4483212D1*
X4536452D2*
X4582012D1*
X4618711D2*
X4704061D1*
X4801047D2*
X4825714D1*
X4975911D2*
X5098812D1*
X5135838D2*
X5258216D1*
X5333047D2*
X5357714D1*
X3715694Y442133D2*
X3799239D1*
X3898063D2*
X3919739D1*
X4000535D2*
X4120902D1*
X4160294D2*
X4243839D1*
X4304592D2*
X4326190D1*
X4340921D2*
X4399832D1*
X4460335D2*
X4482046D1*
X4534617D2*
X4580702D1*
X4620094D2*
X4703639D1*
X4802463D2*
X4824139D1*
X4977135D2*
X5097502D1*
X5136882D2*
X5257171D1*
X5334463D2*
X5356139D1*
X3717984Y438333D2*
X3796440D1*
X3900372D2*
X3917340D1*
X4002136D2*
X4118648D1*
X4162584D2*
X4241040D1*
X4306159D2*
X4323882D1*
X4345275D2*
X4396328D1*
X4461936D2*
X4480331D1*
X4538963D2*
X4578448D1*
X4622384D2*
X4700840D1*
X4804772D2*
X4821740D1*
X4978736D2*
X5095248D1*
X5138394D2*
X5255659D1*
X5336772D2*
X5353740D1*
X3720727Y434533D2*
X3792927D1*
X3903127D2*
X3914527D1*
X4003548D2*
X4115927D1*
X4165327D2*
X4237527D1*
X4307552D2*
X4321127D1*
X4351624D2*
X4386292D1*
X4463348D2*
X4478763D1*
X4550528D2*
X4575727D1*
X4625127D2*
X4697327D1*
X4807527D2*
X4818927D1*
X4980148D2*
X5092527D1*
X5139759D2*
X5254294D1*
X5339527D2*
X5350927D1*
X3717688Y430733D2*
X3736514D1*
X3900073D2*
X3917580D1*
X4002795D2*
X4021514D1*
X4104686D2*
X4118268D1*
X4162288D2*
X4181114D1*
X4306797D2*
X4324165D1*
X4359127D2*
X4374327D1*
X4462595D2*
X4477705D1*
X4564327D2*
X4578068D1*
X4622088D2*
X4640914D1*
X4804473D2*
X4821980D1*
X4979395D2*
X4998114D1*
X5081286D2*
X5094868D1*
X5139000D2*
X5157714D1*
X5240886D2*
X5255053D1*
X5336473D2*
X5353980D1*
X3715164Y426933D2*
X3737441D1*
X3897866D2*
X3919787D1*
X4001342D2*
X4022441D1*
X4101537D2*
X4120287D1*
X4159764D2*
X4182041D1*
X4305343D2*
X4326689D1*
X4356088D2*
X4376066D1*
X4461142D2*
X4484527D1*
X4561288D2*
X4580087D1*
X4619564D2*
X4641841D1*
X4802266D2*
X4824187D1*
X4977942D2*
X4999041D1*
X5078137D2*
X5096887D1*
X5137544D2*
X5158641D1*
X5237737D2*
X5256510D1*
X5334266D2*
X5356187D1*
X3714441Y423133D2*
X3738277D1*
X3896381D2*
X3921272D1*
X4000056D2*
X4023277D1*
X4098968D2*
X4122002D1*
X4159041D2*
X4182877D1*
X4304056D2*
X4327471D1*
X4353564D2*
X4377013D1*
X4459856D2*
X4484367D1*
X4558764D2*
X4581802D1*
X4618841D2*
X4642677D1*
X4800781D2*
X4825672D1*
X4976656D2*
X4999877D1*
X5075568D2*
X5098602D1*
X5136256D2*
X5159477D1*
X5235168D2*
X5257797D1*
X5332781D2*
X5357672D1*
X3715592Y419333D2*
X3738704D1*
X3896339D2*
X3921314D1*
X3999311D2*
X4023704D1*
X4098242D2*
X4122407D1*
X4160192D2*
X4183304D1*
X4303311D2*
X4326700D1*
X4352825D2*
X4377344D1*
X4459111D2*
X4483733D1*
X4558041D2*
X4582207D1*
X4619992D2*
X4643104D1*
X4800739D2*
X4825714D1*
X4975911D2*
X5000304D1*
X5074842D2*
X5099007D1*
X5135511D2*
X5159904D1*
X5234442D2*
X5258542D1*
X5332739D2*
X5357714D1*
X3717159Y415533D2*
X3737233D1*
X3897914D2*
X3919739D1*
X4000694D2*
X4022233D1*
X4099552D2*
X4120990D1*
X4161759D2*
X4181833D1*
X4304694D2*
X4325313D1*
X4353850D2*
X4376025D1*
X4460494D2*
X4482202D1*
X4559192D2*
X4580790D1*
X4621559D2*
X4641633D1*
X4802314D2*
X4824139D1*
X4977294D2*
X4998833D1*
X5076152D2*
X5097590D1*
X5136894D2*
X5158433D1*
X5235752D2*
X5257159D1*
X5334314D2*
X5356139D1*
X3718552Y411733D2*
X3734897D1*
X3900313D2*
X3917340D1*
X4002984D2*
X4019897D1*
X4101805D2*
X4118682D1*
X4163152D2*
X4179497D1*
X4306984D2*
X4323382D1*
X4355327D2*
X4374327D1*
X4462784D2*
X4479772D1*
X4560759D2*
X4578482D1*
X4622952D2*
X4639297D1*
X4804713D2*
X4821740D1*
X4979584D2*
X4996497D1*
X5078405D2*
X5095282D1*
X5139184D2*
X5156097D1*
X5238005D2*
X5254869D1*
X5336713D2*
X5353740D1*
X3717797Y407933D2*
X3732127D1*
X3903127D2*
X3914527D1*
X4005727D2*
X4017127D1*
X4104527D2*
X4115927D1*
X4162397D2*
X4176727D1*
X4309727D2*
X4321127D1*
X4389527D2*
X4393327D1*
X4465527D2*
X4476927D1*
X4562152D2*
X4575727D1*
X4622197D2*
X4636527D1*
X4807527D2*
X4818927D1*
X4982327D2*
X4993727D1*
X5081127D2*
X5092527D1*
X5141927D2*
X5153327D1*
X5240727D2*
X5252127D1*
X5339527D2*
X5350927D1*
X3716343Y404133D2*
X3735165D1*
X3900088D2*
X3917565D1*
X4002688D2*
X4020180D1*
X4102185D2*
X4118980D1*
X4160943D2*
X4179765D1*
X4306673D2*
X4324165D1*
X4384264D2*
X4396835D1*
X4462473D2*
X4479980D1*
X4561397D2*
X4578780D1*
X4620743D2*
X4639565D1*
X4804488D2*
X4821965D1*
X4979288D2*
X4996780D1*
X5078785D2*
X5095580D1*
X5138873D2*
X5156380D1*
X5238385D2*
X5255180D1*
X5336488D2*
X5353965D1*
X3715052Y400333D2*
X3737689D1*
X3897564D2*
X3920089D1*
X4000164D2*
X4022387D1*
X4100167D2*
X4121187D1*
X4159652D2*
X4182289D1*
X4304466D2*
X4326689D1*
X4380367D2*
X4399433D1*
X4460266D2*
X4482187D1*
X4559943D2*
X4580987D1*
X4619452D2*
X4642089D1*
X4801964D2*
X4824489D1*
X4976764D2*
X4998987D1*
X5076767D2*
X5097787D1*
X5136666D2*
X5158587D1*
X5236367D2*
X5257387D1*
X5333964D2*
X5356489D1*
X3714295Y396533D2*
X3738428D1*
X3896841D2*
X3920871D1*
X3999382D2*
X4023872D1*
X4098451D2*
X4122672D1*
X4158895D2*
X4183028D1*
X4302981D2*
X4327471D1*
X4379174D2*
X4400228D1*
X4458781D2*
X4483672D1*
X4558656D2*
X4582472D1*
X4618695D2*
X4642828D1*
X4801241D2*
X4825271D1*
X4975982D2*
X5000472D1*
X5075051D2*
X5099272D1*
X5135181D2*
X5160072D1*
X5234651D2*
X5258872D1*
X5333241D2*
X5357271D1*
X3715396Y392733D2*
X3737404D1*
X3897992D2*
X3920100D1*
X4000153D2*
X4023914D1*
X4098047D2*
X4122714D1*
X4159996D2*
X4182004D1*
X4302939D2*
X4326700D1*
X4378528D2*
X4400659D1*
X4458739D2*
X4483714D1*
X4557911D2*
X4582514D1*
X4619796D2*
X4641804D1*
X4802392D2*
X4824500D1*
X4976753D2*
X5000514D1*
X5074647D2*
X5099314D1*
X5135139D2*
X5160114D1*
X5234247D2*
X5258914D1*
X5334392D2*
X5356500D1*
X3716927Y388933D2*
X3735927D1*
X3899559D2*
X3918713D1*
X4001541D2*
X4022339D1*
X4099463D2*
X4121139D1*
X4161527D2*
X4180527D1*
X4304514D2*
X4325313D1*
X4378127D2*
X4400927D1*
X4460314D2*
X4482139D1*
X4559294D2*
X4580939D1*
X4621327D2*
X4640327D1*
X4803959D2*
X4823113D1*
X4978141D2*
X4998939D1*
X5076063D2*
X5097739D1*
X5136714D2*
X5158539D1*
X5235663D2*
X5257339D1*
X5335959D2*
X5355113D1*
X3900952Y385133D2*
X3916782D1*
X4003471D2*
X4019940D1*
X4101772D2*
X4118740D1*
X4306913D2*
X4323382D1*
X4462713D2*
X4479740D1*
X4561584D2*
X4578540D1*
X4805352D2*
X4821182D1*
X4980071D2*
X4996540D1*
X5078372D2*
X5095340D1*
X5139113D2*
X5156140D1*
X5237972D2*
X5254940D1*
X5337352D2*
X5353182D1*
X3900197Y381333D2*
X3914527D1*
X4005727D2*
X4017127D1*
X4104527D2*
X4115927D1*
X4309727D2*
X4321127D1*
X4408527D2*
X4423727D1*
X4465527D2*
X4476927D1*
X4564327D2*
X4575727D1*
X4804597D2*
X4818927D1*
X4982327D2*
X4993727D1*
X5081127D2*
X5092527D1*
X5141927D2*
X5153327D1*
X5240727D2*
X5252127D1*
X5336597D2*
X5350927D1*
X3743527Y377533D2*
X3819527D1*
X3898743D2*
X3917565D1*
X4002688D2*
X4020165D1*
X4101488D2*
X4118965D1*
X4188127D2*
X4264127D1*
X4306688D2*
X4324165D1*
X4405488D2*
X4425466D1*
X4462488D2*
X4479965D1*
X4561288D2*
X4578765D1*
X4647927D2*
X4723927D1*
X4803143D2*
X4821965D1*
X4979288D2*
X4996765D1*
X5078088D2*
X5095565D1*
X5138888D2*
X5156365D1*
X5237688D2*
X5255165D1*
X5335143D2*
X5353965D1*
X3741787Y373733D2*
X3822420D1*
X3897456D2*
X3920089D1*
X4000164D2*
X4022689D1*
X4098964D2*
X4121489D1*
X4186387D2*
X4267020D1*
X4304164D2*
X4326689D1*
X4402964D2*
X4426409D1*
X4459964D2*
X4482489D1*
X4558764D2*
X4581289D1*
X4646187D2*
X4726820D1*
X4801856D2*
X4824489D1*
X4976764D2*
X4999289D1*
X5075564D2*
X5098089D1*
X5136364D2*
X5158889D1*
X5235164D2*
X5257689D1*
X5333856D2*
X5356489D1*
X3740841Y369933D2*
X3824629D1*
X3896711D2*
X3920812D1*
X3999441D2*
X4023412D1*
X4098241D2*
X4122212D1*
X4185441D2*
X4269229D1*
X4303441D2*
X4327412D1*
X4402241D2*
X4426729D1*
X4459241D2*
X4483212D1*
X4558041D2*
X4582012D1*
X4645241D2*
X4729029D1*
X4801111D2*
X4825212D1*
X4976041D2*
X5000012D1*
X5074841D2*
X5098812D1*
X5135641D2*
X5159612D1*
X5234441D2*
X5258412D1*
X5333111D2*
X5357212D1*
X3740510Y366133D2*
X3824355D1*
X3898094D2*
X3919502D1*
X4000752D2*
X4022102D1*
X4099552D2*
X4120902D1*
X4185110D2*
X4268955D1*
X4304752D2*
X4326102D1*
X4403552D2*
X4425145D1*
X4460552D2*
X4481902D1*
X4559352D2*
X4580702D1*
X4644910D2*
X4728755D1*
X4802494D2*
X4823902D1*
X4977352D2*
X4998702D1*
X5076152D2*
X5097502D1*
X5136952D2*
X5158302D1*
X5235752D2*
X5257102D1*
X5334494D2*
X5355902D1*
X3741828Y362333D2*
X3822121D1*
X3900384D2*
X3917248D1*
X4003005D2*
X4019848D1*
X4101805D2*
X4118648D1*
X4186428D2*
X4266721D1*
X4307005D2*
X4323848D1*
X4405805D2*
X4422742D1*
X4462805D2*
X4479648D1*
X4561605D2*
X4578448D1*
X4646228D2*
X4726521D1*
X4804784D2*
X4821648D1*
X4979605D2*
X4996448D1*
X5078405D2*
X5095248D1*
X5139205D2*
X5156048D1*
X5238005D2*
X5254848D1*
X5336784D2*
X5353648D1*
X3743527Y358533D2*
X3819527D1*
X3903127D2*
X3914527D1*
X4005727D2*
X4017127D1*
X4104527D2*
X4115927D1*
X4188127D2*
X4264127D1*
X4309727D2*
X4321127D1*
X4408527D2*
X4419927D1*
X4465527D2*
X4476927D1*
X4564327D2*
X4575727D1*
X4647927D2*
X4723927D1*
X4807527D2*
X4818927D1*
X4982327D2*
X4993727D1*
X5081127D2*
X5092527D1*
X5141927D2*
X5153327D1*
X5240727D2*
X5252127D1*
X5339527D2*
X5350927D1*
X5454200Y1736400D2*
X5461800D1*
X5450692Y1728800D2*
X5461800D1*
X5448509Y1721200D2*
X5461800D1*
X5689800D2*
X5705000D1*
X5447404Y1713600D2*
X5461830D1*
X5674889D2*
X5698280D1*
X5446915Y1706000D2*
X5462097D1*
X5660693D2*
X5690334D1*
X5446716Y1698400D2*
X5463095D1*
X5647582D2*
X5681400D1*
X5157800Y1690800D2*
X5173000D1*
X5446641D2*
X5465183D1*
X5635329D2*
X5671458D1*
X5104600Y1683200D2*
X5207785D1*
X5446614D2*
X5468100D1*
X5623572D2*
X5660833D1*
X5104600Y1675600D2*
X5233194D1*
X5446634D2*
X5471275D1*
X5612320D2*
X5650292D1*
X5217106Y1668000D2*
X5250935D1*
X5446898D2*
X5474196D1*
X5602121D2*
X5640982D1*
X5229151Y1660400D2*
X5264529D1*
X5447866D2*
X5476812D1*
X5593762D2*
X5633544D1*
X5239296Y1652800D2*
X5275831D1*
X5449686D2*
X5479470D1*
X5587145D2*
X5627051D1*
X5248131Y1645200D2*
X5285687D1*
X5451634D2*
X5481822D1*
X5581378D2*
X5620432D1*
X5256265Y1637600D2*
X5295203D1*
X5452960D2*
X5483567D1*
X5575946D2*
X5613651D1*
X5264077Y1630000D2*
X5305030D1*
X5453694D2*
X5485298D1*
X5571050D2*
X5607284D1*
X5271757Y1622400D2*
X5314741D1*
X5454284D2*
X5487462D1*
X5566401D2*
X5601646D1*
X5279385Y1614800D2*
X5323727D1*
X5455356D2*
X5489551D1*
X5561133D2*
X5596306D1*
X5286995Y1607200D2*
X5332053D1*
X5456960D2*
X5490900D1*
X5554683D2*
X5591046D1*
X5294569Y1599600D2*
X5339953D1*
X5457959D2*
X5491357D1*
X5547768D2*
X5586244D1*
X5301903Y1592000D2*
X5347422D1*
X5457441D2*
X5490718D1*
X5541537D2*
X5581886D1*
X5308534Y1584400D2*
X5354106D1*
X5455932D2*
X5489033D1*
X5535824D2*
X5577595D1*
X5314313Y1576800D2*
X5359875D1*
X5453961D2*
X5487107D1*
X5530378D2*
X5572967D1*
X5758200D2*
X5765800D1*
X5319945Y1569200D2*
X5365266D1*
X5451540D2*
X5485533D1*
X5525436D2*
X5568032D1*
X5750889D2*
X5784479D1*
X5326105Y1561600D2*
X5370544D1*
X5448994D2*
X5483861D1*
X5520472D2*
X5563423D1*
X5744264D2*
X5801535D1*
X5256600Y1554000D2*
X5302200D1*
X5332600D2*
X5375323D1*
X5445962D2*
X5481656D1*
X5513860D2*
X5559740D1*
X5738487D2*
X5816286D1*
X5224799Y1546400D2*
X5379388D1*
X5441875D2*
X5479258D1*
X5504119D2*
X5557065D1*
X5732855D2*
X5766975D1*
X5782397D2*
X5827743D1*
X5198903Y1538800D2*
X5382465D1*
X5431300D2*
X5477000D1*
X5492200D2*
X5559076D1*
X5613800D2*
X5667000D1*
X5726695D2*
X5761260D1*
X5800264D2*
X5835689D1*
X5179109Y1531200D2*
X5384408D1*
X5417154D2*
X5566151D1*
X5606728D2*
X5705000D1*
X5720200D2*
X5755647D1*
X5819000D2*
X5841800D1*
X5164320Y1523600D2*
X5385800D1*
X5401000D2*
X5574569D1*
X5602029D2*
X5749493D1*
X5153293Y1516000D2*
X5583400D1*
X5598600D2*
X5743000D1*
X5145013Y1508400D2*
X5753789D1*
X5138834Y1500800D2*
X5762301D1*
X5134178Y1493200D2*
X5768880D1*
X5130890Y1485600D2*
X5771214D1*
X5129024Y1478000D2*
X5772472D1*
X5128361Y1470400D2*
X5773008D1*
X5128953Y1462800D2*
X5772940D1*
X5130907Y1455200D2*
X5771731D1*
X5134060Y1447600D2*
X5769311D1*
X5138478Y1440000D2*
X5762428D1*
X5144507Y1432400D2*
X5753360D1*
X5152481Y1424800D2*
X5582255D1*
X5599223D2*
X5743000D1*
X5163150Y1417200D2*
X5385511D1*
X5396489D2*
X5573098D1*
X5600619D2*
X5749420D1*
X5177754Y1409600D2*
X5384507D1*
X5417127D2*
X5565062D1*
X5606541D2*
X5705000D1*
X5719911D2*
X5755072D1*
X5819000D2*
X5841800D1*
X5198232Y1402000D2*
X5382388D1*
X5433191D2*
X5478175D1*
X5488008D2*
X5558890D1*
X5613800D2*
X5667000D1*
X5726536D2*
X5760390D1*
X5799763D2*
X5836215D1*
X5225510Y1394400D2*
X5379204D1*
X5440127D2*
X5480059D1*
X5502347D2*
X5558018D1*
X5732315D2*
X5765800D1*
X5781000D2*
X5827612D1*
X5256600Y1386800D2*
X5302200D1*
X5332889D2*
X5375060D1*
X5444876D2*
X5482056D1*
X5512101D2*
X5560421D1*
X5737966D2*
X5815773D1*
X5326264Y1379200D2*
X5370289D1*
X5448508D2*
X5483654D1*
X5518989D2*
X5564091D1*
X5744234D2*
X5801125D1*
X5320485Y1371600D2*
X5365427D1*
X5451496D2*
X5485329D1*
X5524734D2*
X5568616D1*
X5751090D2*
X5784084D1*
X5314834Y1364000D2*
X5360178D1*
X5454295D2*
X5487472D1*
X5530172D2*
X5573125D1*
X5758200D2*
X5765800D1*
X5308560Y1356400D2*
X5354065D1*
X5457747D2*
X5489554D1*
X5535511D2*
X5577374D1*
X5301664Y1348800D2*
X5347231D1*
X5461800D2*
X5490902D1*
X5541547D2*
X5581625D1*
X5294387Y1341200D2*
X5339946D1*
X5458292D2*
X5491358D1*
X5548511D2*
X5586240D1*
X5286920Y1333600D2*
X5332220D1*
X5456109D2*
X5490718D1*
X5555216D2*
X5591200D1*
X5279371Y1326000D2*
X5323705D1*
X5455004D2*
X5489033D1*
X5560883D2*
X5596134D1*
X5271790Y1318400D2*
X5314304D1*
X5454485D2*
X5487107D1*
X5565873D2*
X5601379D1*
X5264197Y1310800D2*
X5304733D1*
X5454019D2*
X5485533D1*
X5570821D2*
X5607233D1*
X5256569Y1303200D2*
X5295542D1*
X5452976D2*
X5483867D1*
X5575918D2*
X5613102D1*
X5248673Y1295600D2*
X5286270D1*
X5451128D2*
X5481697D1*
X5580934D2*
X5618568D1*
X5239810Y1288000D2*
X5276498D1*
X5449170D2*
X5479348D1*
X5586496D2*
X5624346D1*
X5229151Y1280400D2*
X5266341D1*
X5447842D2*
X5476974D1*
X5593622D2*
X5631565D1*
X5216691Y1272800D2*
X5254364D1*
X5447136D2*
X5474163D1*
X5602549D2*
X5640528D1*
X5104600Y1265200D2*
X5235933D1*
X5446813D2*
X5470917D1*
X5612753D2*
X5650716D1*
X5104600Y1257600D2*
X5207542D1*
X5446680D2*
X5467635D1*
X5623655D2*
X5661356D1*
X5157800Y1250000D2*
X5173000D1*
X5446629D2*
X5464930D1*
X5635120D2*
X5671795D1*
X5446610Y1242400D2*
X5463263D1*
X5647434D2*
X5681708D1*
X5446633Y1234800D2*
X5462419D1*
X5660894D2*
X5690851D1*
X5446920Y1227200D2*
X5462043D1*
X5675180D2*
X5698501D1*
X5448094Y1219600D2*
X5461890D1*
X5689800D2*
X5705000D1*
X5450692Y1212000D2*
X5461830D1*
X5454200Y1204400D2*
X5461800D1*
X3743527Y533333D2*
X3741787Y529533D1*
X3740841Y525733D1*
X3740510Y521933D1*
X3741828Y518133D1*
X3743527Y514333D1*
X3819527Y533333D2*
X3821266Y529533D1*
X3822213Y525733D1*
X3822544Y521933D1*
X3821225Y518133D1*
X3819527Y514333D1*
X3853727Y533333D2*
X3850833Y529533D1*
X3848624Y525733D1*
X3848899Y521933D1*
X3851132Y518133D1*
X3853727Y514333D1*
X3963927Y533333D2*
X3967405Y529533D1*
X3969914Y525733D1*
X3969961Y521933D1*
X3967324Y518133D1*
X3963927Y514333D1*
X4005727Y533333D2*
X4002688Y529533D1*
X4000164Y525733D1*
X3999441Y521933D1*
X4000752Y518133D1*
X4003005Y514333D1*
X4005727Y510533D1*
X4003385Y506733D1*
X4001367Y502933D1*
X3999651Y499133D1*
X3999247Y495333D1*
X4000663Y491533D1*
X4002972Y487733D1*
X4005727Y483933D1*
X4002688Y480133D1*
X4000164Y476333D1*
X3999441Y472533D1*
X4000592Y468733D1*
X4002159Y464933D1*
X4003552Y461133D1*
X4002797Y457333D1*
X4001343Y453533D1*
X4000056Y449733D1*
X3999311Y445933D1*
X4000535Y442133D1*
X4002136Y438333D1*
X4003548Y434533D1*
X4002795Y430733D1*
X4001342Y426933D1*
X4000056Y423133D1*
X3999311Y419333D1*
X4000694Y415533D1*
X4002984Y411733D1*
X4005727Y407933D1*
X4002688Y404133D1*
X4000164Y400333D1*
X3999382Y396533D1*
X4000153Y392733D1*
X4001541Y388933D1*
X4003471Y385133D1*
X4005727Y381333D1*
X4002688Y377533D1*
X4000164Y373733D1*
X3999441Y369933D1*
X4000752Y366133D1*
X4003005Y362333D1*
X4005727Y358533D1*
X4017127Y533333D2*
X4020165Y529533D1*
X4022689Y525733D1*
X4023412Y521933D1*
X4022261Y518133D1*
X4020695Y514333D1*
X4019301Y510533D1*
X4020057Y506733D1*
X4021511Y502933D1*
X4022797Y499133D1*
X4023542Y495333D1*
X4022318Y491533D1*
X4020717Y487733D1*
X4019306Y483933D1*
X4020058Y480133D1*
X4021511Y476333D1*
X4022813Y472533D1*
X4023602Y468733D1*
X4022913Y464933D1*
X4022081Y461133D1*
X4021435Y457333D1*
X4020927Y453533D1*
X4104527Y533333D2*
X4101488Y529533D1*
X4098964Y525733D1*
X4098241Y521933D1*
X4099392Y518133D1*
X4100959Y514333D1*
X4102352Y510533D1*
X4101597Y506733D1*
X4100143Y502933D1*
X4098856Y499133D1*
X4098111Y495333D1*
X4099335Y491533D1*
X4100936Y487733D1*
X4102348Y483933D1*
X4101595Y480133D1*
X4100142Y476333D1*
X4098856Y472533D1*
X4098111Y468733D1*
X4099509Y464933D1*
X4101890Y461133D1*
X4104971Y457333D1*
X4108327Y453533D1*
X4115927Y533333D2*
X4118965Y529533D1*
X4121489Y525733D1*
X4122212Y521933D1*
X4120902Y518133D1*
X4118648Y514333D1*
X4115927Y510533D1*
X4118268Y506733D1*
X4120287Y502933D1*
X4122002Y499133D1*
X4122407Y495333D1*
X4120990Y491533D1*
X4118682Y487733D1*
X4115927Y483933D1*
X4118965Y480133D1*
X4121489Y476333D1*
X4122271Y472533D1*
X4121500Y468733D1*
X4120113Y464933D1*
X4118182Y461133D1*
X4115927Y457333D1*
X4118965Y453533D1*
X4121489Y449733D1*
X4122212Y445933D1*
X4120902Y442133D1*
X4118648Y438333D1*
X4115927Y434533D1*
X4118268Y430733D1*
X4120287Y426933D1*
X4122002Y423133D1*
X4122407Y419333D1*
X4120990Y415533D1*
X4118682Y411733D1*
X4115927Y407933D1*
X4118980Y404133D1*
X4121187Y400333D1*
X4122672Y396533D1*
X4122714Y392733D1*
X4121139Y388933D1*
X4118740Y385133D1*
X4115927Y381333D1*
X4118965Y377533D1*
X4121489Y373733D1*
X4122212Y369933D1*
X4120902Y366133D1*
X4118648Y362333D1*
X4115927Y358533D1*
X4188127Y533333D2*
X4186387Y529533D1*
X4185441Y525733D1*
X4185110Y521933D1*
X4186428Y518133D1*
X4188127Y514333D1*
X4264127Y533333D2*
X4265866Y529533D1*
X4266813Y525733D1*
X4267144Y521933D1*
X4265825Y518133D1*
X4264127Y514333D1*
X4309727Y533333D2*
X4306688Y529533D1*
X4304164Y525733D1*
X4303441Y521933D1*
X4304752Y518133D1*
X4307005Y514333D1*
X4309727Y510533D1*
X4306673Y506733D1*
X4304466Y502933D1*
X4302981Y499133D1*
X4302939Y495333D1*
X4304514Y491533D1*
X4306913Y487733D1*
X4309727Y483933D1*
X4306688Y480133D1*
X4304164Y476333D1*
X4303382Y472533D1*
X4304153Y468733D1*
X4305541Y464933D1*
X4307471Y461133D1*
X4309727Y457333D1*
X4306688Y453533D1*
X4304164Y449733D1*
X4303441Y445933D1*
X4304592Y442133D1*
X4306159Y438333D1*
X4307552Y434533D1*
X4306797Y430733D1*
X4305343Y426933D1*
X4304056Y423133D1*
X4303311Y419333D1*
X4304694Y415533D1*
X4306984Y411733D1*
X4309727Y407933D1*
X4306673Y404133D1*
X4304466Y400333D1*
X4302981Y396533D1*
X4302939Y392733D1*
X4304514Y388933D1*
X4306913Y385133D1*
X4309727Y381333D1*
X4306688Y377533D1*
X4304164Y373733D1*
X4303441Y369933D1*
X4304752Y366133D1*
X4307005Y362333D1*
X4309727Y358533D1*
X4397127Y533333D2*
X4398866Y529533D1*
X4399813Y525733D1*
X4400144Y521933D1*
X4398825Y518133D1*
X4397127Y514333D1*
X4465527Y533333D2*
X4462488Y529533D1*
X4459964Y525733D1*
X4459241Y521933D1*
X4460552Y518133D1*
X4462805Y514333D1*
X4465527Y510533D1*
X4462473Y506733D1*
X4460266Y502933D1*
X4458781Y499133D1*
X4458739Y495333D1*
X4460314Y491533D1*
X4462713Y487733D1*
X4465527Y483933D1*
X4462488Y480133D1*
X4459964Y476333D1*
X4459241Y472533D1*
X4460392Y468733D1*
X4461959Y464933D1*
X4463352Y461133D1*
X4462597Y457333D1*
X4461143Y453533D1*
X4459856Y449733D1*
X4459111Y445933D1*
X4460335Y442133D1*
X4461936Y438333D1*
X4463348Y434533D1*
X4462595Y430733D1*
X4461142Y426933D1*
X4459856Y423133D1*
X4459111Y419333D1*
X4460494Y415533D1*
X4462784Y411733D1*
X4465527Y407933D1*
X4462473Y404133D1*
X4460266Y400333D1*
X4458781Y396533D1*
X4458739Y392733D1*
X4460314Y388933D1*
X4462713Y385133D1*
X4465527Y381333D1*
X4462488Y377533D1*
X4459964Y373733D1*
X4459241Y369933D1*
X4460552Y366133D1*
X4462805Y362333D1*
X4465527Y358533D1*
X4476927Y533333D2*
X4479980Y529533D1*
X4482187Y525733D1*
X4483672Y521933D1*
X4483543Y518133D1*
X4482803Y514333D1*
X4481765Y510533D1*
X4480727Y506733D1*
X4493367Y502933D1*
X4503040Y499133D1*
X4511127Y495333D1*
X4509359Y491533D1*
X4508184Y487733D1*
X4507327Y483933D1*
X4480727D1*
X4482026Y480133D1*
X4483142Y476333D1*
X4483714Y472533D1*
X4483812Y468733D1*
X4482182Y464933D1*
X4479756Y461133D1*
X4476927Y457333D1*
X4479965Y453533D1*
X4482489Y449733D1*
X4483212Y445933D1*
X4482046Y442133D1*
X4480331Y438333D1*
X4478763Y434533D1*
X4477705Y430733D1*
X4476927Y426933D1*
X4484527D1*
X4484367Y423133D1*
X4483733Y419333D1*
X4482202Y415533D1*
X4479772Y411733D1*
X4476927Y407933D1*
X4479980Y404133D1*
X4482187Y400333D1*
X4483672Y396533D1*
X4483714Y392733D1*
X4482139Y388933D1*
X4479740Y385133D1*
X4476927Y381333D1*
X4479965Y377533D1*
X4482489Y373733D1*
X4483212Y369933D1*
X4481902Y366133D1*
X4479648Y362333D1*
X4476927Y358533D1*
X4564327Y533333D2*
X4561288Y529533D1*
X4558764Y525733D1*
X4558041Y521933D1*
X4559192Y518133D1*
X4560759Y514333D1*
X4562152Y510533D1*
X4561397Y506733D1*
X4559943Y502933D1*
X4558656Y499133D1*
X4557911Y495333D1*
X4559135Y491533D1*
X4560736Y487733D1*
X4562148Y483933D1*
X4561395Y480133D1*
X4559942Y476333D1*
X4558656Y472533D1*
X4557911Y468733D1*
X4559294Y464933D1*
X4561584Y461133D1*
X4564327Y457333D1*
X4550749Y453533D1*
X4540386Y449733D1*
X4536452Y445933D1*
X4534617Y442133D1*
X4538963Y438333D1*
X4550528Y434533D1*
X4564327Y430733D1*
X4561288Y426933D1*
X4558764Y423133D1*
X4558041Y419333D1*
X4559192Y415533D1*
X4560759Y411733D1*
X4562152Y407933D1*
X4561397Y404133D1*
X4559943Y400333D1*
X4558656Y396533D1*
X4557911Y392733D1*
X4559294Y388933D1*
X4561584Y385133D1*
X4564327Y381333D1*
X4561288Y377533D1*
X4558764Y373733D1*
X4558041Y369933D1*
X4559352Y366133D1*
X4561605Y362333D1*
X4564327Y358533D1*
X4575727Y533333D2*
X4578765Y529533D1*
X4581289Y525733D1*
X4582012Y521933D1*
X4580702Y518133D1*
X4578448Y514333D1*
X4575727Y510533D1*
X4578780Y506733D1*
X4580987Y502933D1*
X4582472Y499133D1*
X4582514Y495333D1*
X4580939Y491533D1*
X4578540Y487733D1*
X4575727Y483933D1*
X4578780Y480133D1*
X4580987Y476333D1*
X4582472Y472533D1*
X4582514Y468733D1*
X4580939Y464933D1*
X4578540Y461133D1*
X4575727Y457333D1*
X4578765Y453533D1*
X4581289Y449733D1*
X4582012Y445933D1*
X4580702Y442133D1*
X4578448Y438333D1*
X4575727Y434533D1*
X4578068Y430733D1*
X4580087Y426933D1*
X4581802Y423133D1*
X4582207Y419333D1*
X4580790Y415533D1*
X4578482Y411733D1*
X4575727Y407933D1*
X4578780Y404133D1*
X4580987Y400333D1*
X4582472Y396533D1*
X4582514Y392733D1*
X4580939Y388933D1*
X4578540Y385133D1*
X4575727Y381333D1*
X4578765Y377533D1*
X4581289Y373733D1*
X4582012Y369933D1*
X4580702Y366133D1*
X4578448Y362333D1*
X4575727Y358533D1*
X4647927Y533333D2*
X4646187Y529533D1*
X4645241Y525733D1*
X4644910Y521933D1*
X4646228Y518133D1*
X4647927Y514333D1*
X4723927Y533333D2*
X4725666Y529533D1*
X4726613Y525733D1*
X4726944Y521933D1*
X4725625Y518133D1*
X4723927Y514333D1*
X4758127Y533333D2*
X4755233Y529533D1*
X4753024Y525733D1*
X4753299Y521933D1*
X4755532Y518133D1*
X4758127Y514333D1*
X4868327Y533333D2*
X4871805Y529533D1*
X4874314Y525733D1*
X4874361Y521933D1*
X4871724Y518133D1*
X4868327Y514333D1*
X4982327Y533333D2*
X4979288Y529533D1*
X4976764Y525733D1*
X4976041Y521933D1*
X4977352Y518133D1*
X4979605Y514333D1*
X4982327Y510533D1*
X4979985Y506733D1*
X4977967Y502933D1*
X4976251Y499133D1*
X4975847Y495333D1*
X4977263Y491533D1*
X4979572Y487733D1*
X4982327Y483933D1*
X4979288Y480133D1*
X4976764Y476333D1*
X4976041Y472533D1*
X4977192Y468733D1*
X4978759Y464933D1*
X4980152Y461133D1*
X4979397Y457333D1*
X4977943Y453533D1*
X4976656Y449733D1*
X4975911Y445933D1*
X4977135Y442133D1*
X4978736Y438333D1*
X4980148Y434533D1*
X4979395Y430733D1*
X4977942Y426933D1*
X4976656Y423133D1*
X4975911Y419333D1*
X4977294Y415533D1*
X4979584Y411733D1*
X4982327Y407933D1*
X4979288Y404133D1*
X4976764Y400333D1*
X4975982Y396533D1*
X4976753Y392733D1*
X4978141Y388933D1*
X4980071Y385133D1*
X4982327Y381333D1*
X4979288Y377533D1*
X4976764Y373733D1*
X4976041Y369933D1*
X4977352Y366133D1*
X4979605Y362333D1*
X4982327Y358533D1*
X4993727Y533333D2*
X4996765Y529533D1*
X4999289Y525733D1*
X5000012Y521933D1*
X4998861Y518133D1*
X4997295Y514333D1*
X4995901Y510533D1*
X4996657Y506733D1*
X4998111Y502933D1*
X4999397Y499133D1*
X5000142Y495333D1*
X4998918Y491533D1*
X4997317Y487733D1*
X4995906Y483933D1*
X4996658Y480133D1*
X4998111Y476333D1*
X4999413Y472533D1*
X5000202Y468733D1*
X4999513Y464933D1*
X4998681Y461133D1*
X4998035Y457333D1*
X4997527Y453533D1*
X5081127Y533333D2*
X5078088Y529533D1*
X5075564Y525733D1*
X5074841Y521933D1*
X5075992Y518133D1*
X5077559Y514333D1*
X5078952Y510533D1*
X5078197Y506733D1*
X5076743Y502933D1*
X5075456Y499133D1*
X5074711Y495333D1*
X5075935Y491533D1*
X5077536Y487733D1*
X5078948Y483933D1*
X5078195Y480133D1*
X5076742Y476333D1*
X5075456Y472533D1*
X5074711Y468733D1*
X5076109Y464933D1*
X5078490Y461133D1*
X5081571Y457333D1*
X5084927Y453533D1*
X5092527Y533333D2*
X5095565Y529533D1*
X5098089Y525733D1*
X5098812Y521933D1*
X5097502Y518133D1*
X5095248Y514333D1*
X5092527Y510533D1*
X5094868Y506733D1*
X5096887Y502933D1*
X5098602Y499133D1*
X5099007Y495333D1*
X5097590Y491533D1*
X5095282Y487733D1*
X5092527Y483933D1*
X5095565Y480133D1*
X5098089Y476333D1*
X5098871Y472533D1*
X5098100Y468733D1*
X5096713Y464933D1*
X5094782Y461133D1*
X5092527Y457333D1*
X5095565Y453533D1*
X5098089Y449733D1*
X5098812Y445933D1*
X5097502Y442133D1*
X5095248Y438333D1*
X5092527Y434533D1*
X5094868Y430733D1*
X5096887Y426933D1*
X5098602Y423133D1*
X5099007Y419333D1*
X5097590Y415533D1*
X5095282Y411733D1*
X5092527Y407933D1*
X5095580Y404133D1*
X5097787Y400333D1*
X5099272Y396533D1*
X5099314Y392733D1*
X5097739Y388933D1*
X5095340Y385133D1*
X5092527Y381333D1*
X5095565Y377533D1*
X5098089Y373733D1*
X5098812Y369933D1*
X5097502Y366133D1*
X5095248Y362333D1*
X5092527Y358533D1*
X5191327Y533333D2*
X5188288Y529533D1*
X5185764Y525733D1*
X5185041Y521933D1*
X5186352Y518133D1*
X5188605Y514333D1*
X5191327Y510533D1*
X5202727Y533333D2*
X5205765Y529533D1*
X5208289Y525733D1*
X5209012Y521933D1*
X5207702Y518133D1*
X5205448Y514333D1*
X5202727Y510533D1*
X5290127Y533333D2*
X5287233Y529533D1*
X5285024Y525733D1*
X5285299Y521933D1*
X5287532Y518133D1*
X5290127Y514333D1*
X5400327Y533333D2*
X5403805Y529533D1*
X5406314Y525733D1*
X5406361Y521933D1*
X5403724Y518133D1*
X5400327Y514333D1*
X3906927D2*
X3903286Y510533D1*
X3900137Y506733D1*
X3897568Y502933D1*
X3896842Y499133D1*
X3897993Y495333D1*
X3899559Y491533D1*
X3900952Y487733D1*
X3900197Y483933D1*
X3898743Y480133D1*
X3897456Y476333D1*
X3896711Y472533D1*
X3898094Y468733D1*
X3900384Y464933D1*
X3903127Y461133D1*
X3900785Y457333D1*
X3898767Y453533D1*
X3897051Y449733D1*
X3896647Y445933D1*
X3898063Y442133D1*
X3900372Y438333D1*
X3903127Y434533D1*
X3900073Y430733D1*
X3897866Y426933D1*
X3896381Y423133D1*
X3896339Y419333D1*
X3897914Y415533D1*
X3900313Y411733D1*
X3903127Y407933D1*
X3900088Y404133D1*
X3897564Y400333D1*
X3896841Y396533D1*
X3897992Y392733D1*
X3899559Y388933D1*
X3900952Y385133D1*
X3900197Y381333D1*
X3898743Y377533D1*
X3897456Y373733D1*
X3896711Y369933D1*
X3898094Y366133D1*
X3900384Y362333D1*
X3903127Y358533D1*
X3918327Y514333D2*
X3918914Y510533D1*
X3919841Y506733D1*
X3920677Y502933D1*
X3921104Y499133D1*
X3919793Y495333D1*
X3918147Y491533D1*
X3916712Y487733D1*
X3917461Y483933D1*
X3918912Y480133D1*
X3920198Y476333D1*
X3920943Y472533D1*
X3919559Y468733D1*
X3917269Y464933D1*
X3914527Y461133D1*
X3917580Y457333D1*
X3919787Y453533D1*
X3921272Y449733D1*
X3921314Y445933D1*
X3919739Y442133D1*
X3917340Y438333D1*
X3914527Y434533D1*
X3917580Y430733D1*
X3919787Y426933D1*
X3921272Y423133D1*
X3921314Y419333D1*
X3919739Y415533D1*
X3917340Y411733D1*
X3914527Y407933D1*
X3917565Y404133D1*
X3920089Y400333D1*
X3920871Y396533D1*
X3920100Y392733D1*
X3918713Y388933D1*
X3916782Y385133D1*
X3914527Y381333D1*
X3917565Y377533D1*
X3920089Y373733D1*
X3920812Y369933D1*
X3919502Y366133D1*
X3917248Y362333D1*
X3914527Y358533D1*
X4324927Y514333D2*
X4325514Y510533D1*
X4326441Y506733D1*
X4327277Y502933D1*
X4327704Y499133D1*
X4326393Y495333D1*
X4324747Y491533D1*
X4323312Y487733D1*
X4324061Y483933D1*
X4325512Y480133D1*
X4326798Y476333D1*
X4327543Y472533D1*
X4326159Y468733D1*
X4323869Y464933D1*
X4321127Y461133D1*
X4323468Y457333D1*
X4325487Y453533D1*
X4327202Y449733D1*
X4327607Y445933D1*
X4326190Y442133D1*
X4323882Y438333D1*
X4321127Y434533D1*
X4324165Y430733D1*
X4326689Y426933D1*
X4327471Y423133D1*
X4326700Y419333D1*
X4325313Y415533D1*
X4323382Y411733D1*
X4321127Y407933D1*
X4324165Y404133D1*
X4326689Y400333D1*
X4327471Y396533D1*
X4326700Y392733D1*
X4325313Y388933D1*
X4323382Y385133D1*
X4321127Y381333D1*
X4324165Y377533D1*
X4326689Y373733D1*
X4327412Y369933D1*
X4326102Y366133D1*
X4323848Y362333D1*
X4321127Y358533D1*
X4811327Y514333D2*
X4807686Y510533D1*
X4804537Y506733D1*
X4801968Y502933D1*
X4801242Y499133D1*
X4802393Y495333D1*
X4803959Y491533D1*
X4805352Y487733D1*
X4804597Y483933D1*
X4803143Y480133D1*
X4801856Y476333D1*
X4801111Y472533D1*
X4802494Y468733D1*
X4804784Y464933D1*
X4807527Y461133D1*
X4805185Y457333D1*
X4803167Y453533D1*
X4801451Y449733D1*
X4801047Y445933D1*
X4802463Y442133D1*
X4804772Y438333D1*
X4807527Y434533D1*
X4804473Y430733D1*
X4802266Y426933D1*
X4800781Y423133D1*
X4800739Y419333D1*
X4802314Y415533D1*
X4804713Y411733D1*
X4807527Y407933D1*
X4804488Y404133D1*
X4801964Y400333D1*
X4801241Y396533D1*
X4802392Y392733D1*
X4803959Y388933D1*
X4805352Y385133D1*
X4804597Y381333D1*
X4803143Y377533D1*
X4801856Y373733D1*
X4801111Y369933D1*
X4802494Y366133D1*
X4804784Y362333D1*
X4807527Y358533D1*
X4822727Y514333D2*
X4823314Y510533D1*
X4824241Y506733D1*
X4825077Y502933D1*
X4825504Y499133D1*
X4824193Y495333D1*
X4822547Y491533D1*
X4821112Y487733D1*
X4821861Y483933D1*
X4823312Y480133D1*
X4824598Y476333D1*
X4825343Y472533D1*
X4823959Y468733D1*
X4821669Y464933D1*
X4818927Y461133D1*
X4821980Y457333D1*
X4824187Y453533D1*
X4825672Y449733D1*
X4825714Y445933D1*
X4824139Y442133D1*
X4821740Y438333D1*
X4818927Y434533D1*
X4821980Y430733D1*
X4824187Y426933D1*
X4825672Y423133D1*
X4825714Y419333D1*
X4824139Y415533D1*
X4821740Y411733D1*
X4818927Y407933D1*
X4821965Y404133D1*
X4824489Y400333D1*
X4825271Y396533D1*
X4824500Y392733D1*
X4823113Y388933D1*
X4821182Y385133D1*
X4818927Y381333D1*
X4821965Y377533D1*
X4824489Y373733D1*
X4825212Y369933D1*
X4823902Y366133D1*
X4821648Y362333D1*
X4818927Y358533D1*
X5343327Y514333D2*
X5339686Y510533D1*
X5336537Y506733D1*
X5333968Y502933D1*
X5333242Y499133D1*
X5334393Y495333D1*
X5335959Y491533D1*
X5337352Y487733D1*
X5336597Y483933D1*
X5335143Y480133D1*
X5333856Y476333D1*
X5333111Y472533D1*
X5334494Y468733D1*
X5336784Y464933D1*
X5339527Y461133D1*
X5337185Y457333D1*
X5335167Y453533D1*
X5333451Y449733D1*
X5333047Y445933D1*
X5334463Y442133D1*
X5336772Y438333D1*
X5339527Y434533D1*
X5336473Y430733D1*
X5334266Y426933D1*
X5332781Y423133D1*
X5332739Y419333D1*
X5334314Y415533D1*
X5336713Y411733D1*
X5339527Y407933D1*
X5336488Y404133D1*
X5333964Y400333D1*
X5333241Y396533D1*
X5334392Y392733D1*
X5335959Y388933D1*
X5337352Y385133D1*
X5336597Y381333D1*
X5335143Y377533D1*
X5333856Y373733D1*
X5333111Y369933D1*
X5334494Y366133D1*
X5336784Y362333D1*
X5339527Y358533D1*
X5354727Y514333D2*
X5355314Y510533D1*
X5356241Y506733D1*
X5357077Y502933D1*
X5357504Y499133D1*
X5356193Y495333D1*
X5354547Y491533D1*
X5353112Y487733D1*
X5353861Y483933D1*
X5355312Y480133D1*
X5356598Y476333D1*
X5357343Y472533D1*
X5355959Y468733D1*
X5353669Y464933D1*
X5350927Y461133D1*
X5353980Y457333D1*
X5356187Y453533D1*
X5357672Y449733D1*
X5357714Y445933D1*
X5356139Y442133D1*
X5353740Y438333D1*
X5350927Y434533D1*
X5353980Y430733D1*
X5356187Y426933D1*
X5357672Y423133D1*
X5357714Y419333D1*
X5356139Y415533D1*
X5353740Y411733D1*
X5350927Y407933D1*
X5353965Y404133D1*
X5356489Y400333D1*
X5357271Y396533D1*
X5356500Y392733D1*
X5355113Y388933D1*
X5353182Y385133D1*
X5350927Y381333D1*
X5353965Y377533D1*
X5356489Y373733D1*
X5357212Y369933D1*
X5355902Y366133D1*
X5353648Y362333D1*
X5350927Y358533D1*
X3720727Y506733D2*
X3717688Y502933D1*
X3715164Y499133D1*
X3714441Y495333D1*
X3715752Y491533D1*
X3718005Y487733D1*
X3720727Y483933D1*
X3717688Y480133D1*
X3715164Y476333D1*
X3714441Y472533D1*
X3715592Y468733D1*
X3717159Y464933D1*
X3718552Y461133D1*
X3717797Y457333D1*
X3716343Y453533D1*
X3715056Y449733D1*
X3714311Y445933D1*
X3715694Y442133D1*
X3717984Y438333D1*
X3720727Y434533D1*
X3717688Y430733D1*
X3715164Y426933D1*
X3714441Y423133D1*
X3715592Y419333D1*
X3717159Y415533D1*
X3718552Y411733D1*
X3717797Y407933D1*
X3716343Y404133D1*
X3715052Y400333D1*
X3714295Y396533D1*
X3715396Y392733D1*
X3716927Y388933D1*
X3732127Y506733D2*
X3735165Y502933D1*
X3737689Y499133D1*
X3738412Y495333D1*
X3737261Y491533D1*
X3735695Y487733D1*
X3734301Y483933D1*
X3735057Y480133D1*
X3736511Y476333D1*
X3737812Y472533D1*
X3738602Y468733D1*
X3737913Y464933D1*
X3737081Y461133D1*
X3736435Y457333D1*
X3735927Y453533D1*
X4165327Y506733D2*
X4162288Y502933D1*
X4159764Y499133D1*
X4159041Y495333D1*
X4160352Y491533D1*
X4162605Y487733D1*
X4165327Y483933D1*
X4162288Y480133D1*
X4159764Y476333D1*
X4159041Y472533D1*
X4160192Y468733D1*
X4161759Y464933D1*
X4163152Y461133D1*
X4162397Y457333D1*
X4160943Y453533D1*
X4159656Y449733D1*
X4158911Y445933D1*
X4160294Y442133D1*
X4162584Y438333D1*
X4165327Y434533D1*
X4162288Y430733D1*
X4159764Y426933D1*
X4159041Y423133D1*
X4160192Y419333D1*
X4161759Y415533D1*
X4163152Y411733D1*
X4162397Y407933D1*
X4160943Y404133D1*
X4159652Y400333D1*
X4158895Y396533D1*
X4159996Y392733D1*
X4161527Y388933D1*
X4176727Y506733D2*
X4179765Y502933D1*
X4182289Y499133D1*
X4183012Y495333D1*
X4181861Y491533D1*
X4180295Y487733D1*
X4178901Y483933D1*
X4179657Y480133D1*
X4181111Y476333D1*
X4182412Y472533D1*
X4183202Y468733D1*
X4182513Y464933D1*
X4181681Y461133D1*
X4181035Y457333D1*
X4180527Y453533D1*
X4412327Y506733D2*
X4407534Y502933D1*
X4403711Y499133D1*
X4402520Y495333D1*
X4403294Y491533D1*
X4405756Y487733D1*
X4408527Y483933D1*
X4405488Y480133D1*
X4402964Y476333D1*
X4402241Y472533D1*
X4403552Y468733D1*
X4405805Y464933D1*
X4408527Y461133D1*
X4416127Y506733D2*
X4420919Y502933D1*
X4424743Y499133D1*
X4425934Y495333D1*
X4425159Y491533D1*
X4422697Y487733D1*
X4419927Y483933D1*
X4422980Y480133D1*
X4425549Y476333D1*
X4426613Y472533D1*
X4426225Y468733D1*
X4423434Y464933D1*
X4419927Y461133D1*
X4625127Y506733D2*
X4622088Y502933D1*
X4619564Y499133D1*
X4618841Y495333D1*
X4620152Y491533D1*
X4622405Y487733D1*
X4625127Y483933D1*
X4622088Y480133D1*
X4619564Y476333D1*
X4618841Y472533D1*
X4619992Y468733D1*
X4621559Y464933D1*
X4622952Y461133D1*
X4622197Y457333D1*
X4620743Y453533D1*
X4619456Y449733D1*
X4618711Y445933D1*
X4620094Y442133D1*
X4622384Y438333D1*
X4625127Y434533D1*
X4622088Y430733D1*
X4619564Y426933D1*
X4618841Y423133D1*
X4619992Y419333D1*
X4621559Y415533D1*
X4622952Y411733D1*
X4622197Y407933D1*
X4620743Y404133D1*
X4619452Y400333D1*
X4618695Y396533D1*
X4619796Y392733D1*
X4621327Y388933D1*
X4636527Y506733D2*
X4639565Y502933D1*
X4642089Y499133D1*
X4642812Y495333D1*
X4641661Y491533D1*
X4640095Y487733D1*
X4638701Y483933D1*
X4639457Y480133D1*
X4640911Y476333D1*
X4642212Y472533D1*
X4643002Y468733D1*
X4642313Y464933D1*
X4641481Y461133D1*
X4640835Y457333D1*
X4640327Y453533D1*
X5172327Y506733D2*
X5169288Y502933D1*
X5166764Y499133D1*
X5166025Y495333D1*
X5167050Y491533D1*
X5168527Y487733D1*
X5183727Y506733D2*
X5186765Y502933D1*
X5188978Y499133D1*
X5190570Y495333D1*
X5186257Y491533D1*
X5174711Y487733D1*
X5160927Y483933D1*
X5210327Y506733D2*
X5207418Y502933D1*
X5205165Y499133D1*
X5205222Y495333D1*
X5205804Y491533D1*
X5206527Y487733D1*
X5221727Y506733D2*
X5225220Y502933D1*
X5227774Y499133D1*
X5228265Y495333D1*
X5227109Y491533D1*
X5225527Y487733D1*
X4514927Y480133D2*
X4512033Y476333D1*
X4509824Y472533D1*
X4510099Y468733D1*
X4512332Y464933D1*
X4514927Y461133D1*
X4526327Y480133D2*
X4529820Y476333D1*
X4532374Y472533D1*
X4532865Y468733D1*
X4531709Y464933D1*
X4530127Y461133D1*
X5149527Y480133D2*
X5147787Y476333D1*
X5146841Y472533D1*
X5146510Y468733D1*
X5147828Y464933D1*
X5149527Y461133D1*
X5144587Y457333D1*
X5140306Y453533D1*
X5136884Y449733D1*
X5135838Y445933D1*
X5136882Y442133D1*
X5138394Y438333D1*
X5139759Y434533D1*
X5139000Y430733D1*
X5137544Y426933D1*
X5136256Y423133D1*
X5135511Y419333D1*
X5136894Y415533D1*
X5139184Y411733D1*
X5141927Y407933D1*
X5138873Y404133D1*
X5136666Y400333D1*
X5135181Y396533D1*
X5135139Y392733D1*
X5136714Y388933D1*
X5139113Y385133D1*
X5141927Y381333D1*
X5138888Y377533D1*
X5136364Y373733D1*
X5135641Y369933D1*
X5136952Y366133D1*
X5139205Y362333D1*
X5141927Y358533D1*
X5168527Y480133D2*
X5169811Y476333D1*
X5170793Y472533D1*
X5171291Y468733D1*
X5169813Y464933D1*
X5167391Y461133D1*
X5164292Y457333D1*
X5160927Y453533D1*
X5229327Y480133D2*
X5227573Y476333D1*
X5226496Y472533D1*
X5226092Y468733D1*
X5226143Y464933D1*
X5227825Y461133D1*
X5230280Y457333D1*
X5233127Y453533D1*
X5244527Y480133D2*
X5246266Y476333D1*
X5247213Y472533D1*
X5247544Y468733D1*
X5246225Y464933D1*
X5244527Y461133D1*
X5249466Y457333D1*
X5253747Y453533D1*
X5257169Y449733D1*
X5258216Y445933D1*
X5257171Y442133D1*
X5255659Y438333D1*
X5254294Y434533D1*
X5255053Y430733D1*
X5256510Y426933D1*
X5257797Y423133D1*
X5258542Y419333D1*
X5257159Y415533D1*
X5254869Y411733D1*
X5252127Y407933D1*
X5255180Y404133D1*
X5257387Y400333D1*
X5258872Y396533D1*
X5258914Y392733D1*
X5257339Y388933D1*
X5254940Y385133D1*
X5252127Y381333D1*
X5255165Y377533D1*
X5257689Y373733D1*
X5258412Y369933D1*
X5257102Y366133D1*
X5254848Y362333D1*
X5252127Y358533D1*
X3796727Y453533D2*
X3798451Y449733D1*
X3799661Y445933D1*
X3799239Y442133D1*
X3796440Y438333D1*
X3792927Y434533D1*
X4241327Y453533D2*
X4243051Y449733D1*
X4244261Y445933D1*
X4243839Y442133D1*
X4241040Y438333D1*
X4237527Y434533D1*
X4347727Y453533D2*
X4344248Y449733D1*
X4341739Y445933D1*
X4340921Y442133D1*
X4345275Y438333D1*
X4351624Y434533D1*
X4359127Y430733D1*
X4356088Y426933D1*
X4353564Y423133D1*
X4352825Y419333D1*
X4353850Y415533D1*
X4355327Y411733D1*
X4397127Y453533D2*
X4398866Y449733D1*
X4400120Y445933D1*
X4399832Y442133D1*
X4396328Y438333D1*
X4386292Y434533D1*
X4374327Y430733D1*
X4376066Y426933D1*
X4377013Y423133D1*
X4377344Y419333D1*
X4376025Y415533D1*
X4374327Y411733D1*
X4701127Y453533D2*
X4702851Y449733D1*
X4704061Y445933D1*
X4703639Y442133D1*
X4700840Y438333D1*
X4697327Y434533D1*
X3735927D2*
X3736514Y430733D1*
X3737441Y426933D1*
X3738277Y423133D1*
X3738704Y419333D1*
X3737233Y415533D1*
X3734897Y411733D1*
X3732127Y407933D1*
X3735165Y404133D1*
X3737689Y400333D1*
X3738428Y396533D1*
X3737404Y392733D1*
X3735927Y388933D1*
X4020927Y434533D2*
X4021514Y430733D1*
X4022441Y426933D1*
X4023277Y423133D1*
X4023704Y419333D1*
X4022233Y415533D1*
X4019897Y411733D1*
X4017127Y407933D1*
X4020180Y404133D1*
X4022387Y400333D1*
X4023872Y396533D1*
X4023914Y392733D1*
X4022339Y388933D1*
X4019940Y385133D1*
X4017127Y381333D1*
X4020165Y377533D1*
X4022689Y373733D1*
X4023412Y369933D1*
X4022102Y366133D1*
X4019848Y362333D1*
X4017127Y358533D1*
X4108327Y434533D2*
X4104686Y430733D1*
X4101537Y426933D1*
X4098968Y423133D1*
X4098242Y419333D1*
X4099552Y415533D1*
X4101805Y411733D1*
X4104527Y407933D1*
X4102185Y404133D1*
X4100167Y400333D1*
X4098451Y396533D1*
X4098047Y392733D1*
X4099463Y388933D1*
X4101772Y385133D1*
X4104527Y381333D1*
X4101488Y377533D1*
X4098964Y373733D1*
X4098241Y369933D1*
X4099552Y366133D1*
X4101805Y362333D1*
X4104527Y358533D1*
X4180527Y434533D2*
X4181114Y430733D1*
X4182041Y426933D1*
X4182877Y423133D1*
X4183304Y419333D1*
X4181833Y415533D1*
X4179497Y411733D1*
X4176727Y407933D1*
X4179765Y404133D1*
X4182289Y400333D1*
X4183028Y396533D1*
X4182004Y392733D1*
X4180527Y388933D1*
X4640327Y434533D2*
X4640914Y430733D1*
X4641841Y426933D1*
X4642677Y423133D1*
X4643104Y419333D1*
X4641633Y415533D1*
X4639297Y411733D1*
X4636527Y407933D1*
X4639565Y404133D1*
X4642089Y400333D1*
X4642828Y396533D1*
X4641804Y392733D1*
X4640327Y388933D1*
X4997527Y434533D2*
X4998114Y430733D1*
X4999041Y426933D1*
X4999877Y423133D1*
X5000304Y419333D1*
X4998833Y415533D1*
X4996497Y411733D1*
X4993727Y407933D1*
X4996780Y404133D1*
X4998987Y400333D1*
X5000472Y396533D1*
X5000514Y392733D1*
X4998939Y388933D1*
X4996540Y385133D1*
X4993727Y381333D1*
X4996765Y377533D1*
X4999289Y373733D1*
X5000012Y369933D1*
X4998702Y366133D1*
X4996448Y362333D1*
X4993727Y358533D1*
X5084927Y434533D2*
X5081286Y430733D1*
X5078137Y426933D1*
X5075568Y423133D1*
X5074842Y419333D1*
X5076152Y415533D1*
X5078405Y411733D1*
X5081127Y407933D1*
X5078785Y404133D1*
X5076767Y400333D1*
X5075051Y396533D1*
X5074647Y392733D1*
X5076063Y388933D1*
X5078372Y385133D1*
X5081127Y381333D1*
X5078088Y377533D1*
X5075564Y373733D1*
X5074841Y369933D1*
X5076152Y366133D1*
X5078405Y362333D1*
X5081127Y358533D1*
X5157127Y434533D2*
X5157714Y430733D1*
X5158641Y426933D1*
X5159477Y423133D1*
X5159904Y419333D1*
X5158433Y415533D1*
X5156097Y411733D1*
X5153327Y407933D1*
X5156380Y404133D1*
X5158587Y400333D1*
X5160072Y396533D1*
X5160114Y392733D1*
X5158539Y388933D1*
X5156140Y385133D1*
X5153327Y381333D1*
X5156365Y377533D1*
X5158889Y373733D1*
X5159612Y369933D1*
X5158302Y366133D1*
X5156048Y362333D1*
X5153327Y358533D1*
X5244527Y434533D2*
X5240886Y430733D1*
X5237737Y426933D1*
X5235168Y423133D1*
X5234442Y419333D1*
X5235752Y415533D1*
X5238005Y411733D1*
X5240727Y407933D1*
X5238385Y404133D1*
X5236367Y400333D1*
X5234651Y396533D1*
X5234247Y392733D1*
X5235663Y388933D1*
X5237972Y385133D1*
X5240727Y381333D1*
X5237688Y377533D1*
X5235164Y373733D1*
X5234441Y369933D1*
X5235752Y366133D1*
X5238005Y362333D1*
X5240727Y358533D1*
X4389527Y407933D2*
X4384264Y404133D1*
X4380367Y400333D1*
X4379174Y396533D1*
X4378528Y392733D1*
X4378127Y388933D1*
X4393327Y407933D2*
X4396835Y404133D1*
X4399433Y400333D1*
X4400228Y396533D1*
X4400659Y392733D1*
X4400927Y388933D1*
X4408527Y381333D2*
X4405488Y377533D1*
X4402964Y373733D1*
X4402241Y369933D1*
X4403552Y366133D1*
X4405805Y362333D1*
X4408527Y358533D1*
X4423727Y381333D2*
X4425466Y377533D1*
X4426409Y373733D1*
X4426729Y369933D1*
X4425145Y366133D1*
X4422742Y362333D1*
X4419927Y358533D1*
X3743527Y377533D2*
X3741787Y373733D1*
X3740841Y369933D1*
X3740510Y366133D1*
X3741828Y362333D1*
X3743527Y358533D1*
X3819527Y377533D2*
X3822420Y373733D1*
X3824629Y369933D1*
X3824355Y366133D1*
X3822121Y362333D1*
X3819527Y358533D1*
X4188127Y377533D2*
X4186387Y373733D1*
X4185441Y369933D1*
X4185110Y366133D1*
X4186428Y362333D1*
X4188127Y358533D1*
X4264127Y377533D2*
X4267020Y373733D1*
X4269229Y369933D1*
X4268955Y366133D1*
X4266721Y362333D1*
X4264127Y358533D1*
X4647927Y377533D2*
X4646187Y373733D1*
X4645241Y369933D1*
X4644910Y366133D1*
X4646228Y362333D1*
X4647927Y358533D1*
X4723927Y377533D2*
X4726820Y373733D1*
X4729029Y369933D1*
X4728755Y366133D1*
X4726521Y362333D1*
X4723927Y358533D1*
X5454200Y1736400D2*
X5450692Y1728800D1*
X5448509Y1721200D1*
X5447404Y1713600D1*
X5446915Y1706000D1*
X5446716Y1698400D1*
X5446641Y1690800D1*
X5446614Y1683200D1*
X5446634Y1675600D1*
X5446898Y1668000D1*
X5447866Y1660400D1*
X5449686Y1652800D1*
X5451634Y1645200D1*
X5452960Y1637600D1*
X5453694Y1630000D1*
X5454284Y1622400D1*
X5455356Y1614800D1*
X5456960Y1607200D1*
X5457959Y1599600D1*
X5457441Y1592000D1*
X5455932Y1584400D1*
X5453961Y1576800D1*
X5451540Y1569200D1*
X5448994Y1561600D1*
X5445962Y1554000D1*
X5441875Y1546400D1*
X5431300Y1538800D1*
X5417154Y1531200D1*
X5401000Y1523600D1*
X5461800Y1736400D2*
Y1728800D1*
Y1721200D1*
X5461830Y1713600D1*
X5462097Y1706000D1*
X5463095Y1698400D1*
X5465183Y1690800D1*
X5468100Y1683200D1*
X5471275Y1675600D1*
X5474196Y1668000D1*
X5476812Y1660400D1*
X5479470Y1652800D1*
X5481822Y1645200D1*
X5483567Y1637600D1*
X5485298Y1630000D1*
X5487462Y1622400D1*
X5489551Y1614800D1*
X5490900Y1607200D1*
X5491357Y1599600D1*
X5490718Y1592000D1*
X5489033Y1584400D1*
X5487107Y1576800D1*
X5485533Y1569200D1*
X5483861Y1561600D1*
X5481656Y1554000D1*
X5479258Y1546400D1*
X5477000Y1538800D1*
X5689800Y1721200D2*
X5674889Y1713600D1*
X5660693Y1706000D1*
X5647582Y1698400D1*
X5635329Y1690800D1*
X5623572Y1683200D1*
X5612320Y1675600D1*
X5602121Y1668000D1*
X5593762Y1660400D1*
X5587145Y1652800D1*
X5581378Y1645200D1*
X5575946Y1637600D1*
X5571050Y1630000D1*
X5566401Y1622400D1*
X5561133Y1614800D1*
X5554683Y1607200D1*
X5547768Y1599600D1*
X5541537Y1592000D1*
X5535824Y1584400D1*
X5530378Y1576800D1*
X5525436Y1569200D1*
X5520472Y1561600D1*
X5513860Y1554000D1*
X5504119Y1546400D1*
X5492200Y1538800D1*
X5705000Y1721200D2*
X5698280Y1713600D1*
X5690334Y1706000D1*
X5681400Y1698400D1*
X5671458Y1690800D1*
X5660833Y1683200D1*
X5650292Y1675600D1*
X5640982Y1668000D1*
X5633544Y1660400D1*
X5627051Y1652800D1*
X5620432Y1645200D1*
X5613651Y1637600D1*
X5607284Y1630000D1*
X5601646Y1622400D1*
X5596306Y1614800D1*
X5591046Y1607200D1*
X5586244Y1599600D1*
X5581886Y1592000D1*
X5577595Y1584400D1*
X5572967Y1576800D1*
X5568032Y1569200D1*
X5563423Y1561600D1*
X5559740Y1554000D1*
X5557065Y1546400D1*
X5559076Y1538800D1*
X5566151Y1531200D1*
X5574569Y1523600D1*
X5583400Y1516000D1*
X5157800Y1690800D2*
X5104600Y1683200D1*
Y1675600D1*
X5173000Y1690800D2*
X5207785Y1683200D1*
X5233194Y1675600D1*
X5250935Y1668000D1*
X5264529Y1660400D1*
X5275831Y1652800D1*
X5285687Y1645200D1*
X5295203Y1637600D1*
X5305030Y1630000D1*
X5314741Y1622400D1*
X5323727Y1614800D1*
X5332053Y1607200D1*
X5339953Y1599600D1*
X5347422Y1592000D1*
X5354106Y1584400D1*
X5359875Y1576800D1*
X5365266Y1569200D1*
X5370544Y1561600D1*
X5375323Y1554000D1*
X5379388Y1546400D1*
X5382465Y1538800D1*
X5384408Y1531200D1*
X5385800Y1523600D1*
X5203400Y1675600D2*
X5217106Y1668000D1*
X5229151Y1660400D1*
X5239296Y1652800D1*
X5248131Y1645200D1*
X5256265Y1637600D1*
X5264077Y1630000D1*
X5271757Y1622400D1*
X5279385Y1614800D1*
X5286995Y1607200D1*
X5294569Y1599600D1*
X5301903Y1592000D1*
X5308534Y1584400D1*
X5314313Y1576800D1*
X5319945Y1569200D1*
X5326105Y1561600D1*
X5332600Y1554000D1*
X5758200Y1576800D2*
X5750889Y1569200D1*
X5744264Y1561600D1*
X5738487Y1554000D1*
X5732855Y1546400D1*
X5726695Y1538800D1*
X5720200Y1531200D1*
X5765800Y1576800D2*
X5784479Y1569200D1*
X5801535Y1561600D1*
X5816286Y1554000D1*
X5827743Y1546400D1*
X5835689Y1538800D1*
X5841800Y1531200D1*
X5256600Y1554000D2*
X5224799Y1546400D1*
X5198903Y1538800D1*
X5179109Y1531200D1*
X5164320Y1523600D1*
X5153293Y1516000D1*
X5145013Y1508400D1*
X5138834Y1500800D1*
X5134178Y1493200D1*
X5130890Y1485600D1*
X5129024Y1478000D1*
X5128361Y1470400D1*
X5128953Y1462800D1*
X5130907Y1455200D1*
X5134060Y1447600D1*
X5138478Y1440000D1*
X5144507Y1432400D1*
X5152481Y1424800D1*
X5163150Y1417200D1*
X5177754Y1409600D1*
X5198232Y1402000D1*
X5225510Y1394400D1*
X5256600Y1386800D1*
X5302200Y1554000D2*
X5773400D2*
X5766975Y1546400D1*
X5761260Y1538800D1*
X5755647Y1531200D1*
X5749493Y1523600D1*
X5743000Y1516000D1*
X5753789Y1508400D1*
X5762301Y1500800D1*
X5768880Y1493200D1*
X5771214Y1485600D1*
X5772472Y1478000D1*
X5773008Y1470400D1*
X5772940Y1462800D1*
X5771731Y1455200D1*
X5769311Y1447600D1*
X5762428Y1440000D1*
X5753360Y1432400D1*
X5743000Y1424800D1*
X5749420Y1417200D1*
X5755072Y1409600D1*
X5760390Y1402000D1*
X5765800Y1394400D1*
Y1554000D2*
X5782397Y1546400D1*
X5800264Y1538800D1*
X5819000Y1531200D1*
X5613800Y1538800D2*
X5606728Y1531200D1*
X5602029Y1523600D1*
X5598600Y1516000D1*
X5667000Y1538800D2*
X5705000Y1531200D1*
X5591000Y1432400D2*
X5582255Y1424800D1*
X5573098Y1417200D1*
X5565062Y1409600D1*
X5558890Y1402000D1*
X5558018Y1394400D1*
X5560421Y1386800D1*
X5564091Y1379200D1*
X5568616Y1371600D1*
X5573125Y1364000D1*
X5577374Y1356400D1*
X5581625Y1348800D1*
X5586240Y1341200D1*
X5591200Y1333600D1*
X5596134Y1326000D1*
X5601379Y1318400D1*
X5607233Y1310800D1*
X5613102Y1303200D1*
X5618568Y1295600D1*
X5624346Y1288000D1*
X5631565Y1280400D1*
X5640528Y1272800D1*
X5650716Y1265200D1*
X5661356Y1257600D1*
X5671795Y1250000D1*
X5681708Y1242400D1*
X5690851Y1234800D1*
X5698501Y1227200D1*
X5705000Y1219600D1*
X5598600Y1432400D2*
X5599223Y1424800D1*
X5600619Y1417200D1*
X5606541Y1409600D1*
X5613800Y1402000D1*
X5385800Y1424800D2*
X5385511Y1417200D1*
X5384507Y1409600D1*
X5382388Y1402000D1*
X5379204Y1394400D1*
X5375060Y1386800D1*
X5370289Y1379200D1*
X5365427Y1371600D1*
X5360178Y1364000D1*
X5354065Y1356400D1*
X5347231Y1348800D1*
X5339946Y1341200D1*
X5332220Y1333600D1*
X5323705Y1326000D1*
X5314304Y1318400D1*
X5304733Y1310800D1*
X5295542Y1303200D1*
X5286270Y1295600D1*
X5276498Y1288000D1*
X5266341Y1280400D1*
X5254364Y1272800D1*
X5235933Y1265200D1*
X5207542Y1257600D1*
X5173000Y1250000D1*
X5370600Y1424800D2*
X5396489Y1417200D1*
X5417127Y1409600D1*
X5433191Y1402000D1*
X5440127Y1394400D1*
X5444876Y1386800D1*
X5448508Y1379200D1*
X5451496Y1371600D1*
X5454295Y1364000D1*
X5457747Y1356400D1*
X5461800Y1348800D1*
X5458292Y1341200D1*
X5456109Y1333600D1*
X5455004Y1326000D1*
X5454485Y1318400D1*
X5454019Y1310800D1*
X5452976Y1303200D1*
X5451128Y1295600D1*
X5449170Y1288000D1*
X5447842Y1280400D1*
X5447136Y1272800D1*
X5446813Y1265200D1*
X5446680Y1257600D1*
X5446629Y1250000D1*
X5446610Y1242400D1*
X5446633Y1234800D1*
X5446920Y1227200D1*
X5448094Y1219600D1*
X5450692Y1212000D1*
X5454200Y1204400D1*
X5743000Y1417200D2*
X5705000Y1409600D1*
X5667000Y1402000D1*
X5712600Y1417200D2*
X5719911Y1409600D1*
X5726536Y1402000D1*
X5732315Y1394400D1*
X5737966Y1386800D1*
X5744234Y1379200D1*
X5751090Y1371600D1*
X5758200Y1364000D1*
X5819000Y1409600D2*
X5799763Y1402000D1*
X5781000Y1394400D1*
X5841800Y1409600D2*
X5836215Y1402000D1*
X5827612Y1394400D1*
X5815773Y1386800D1*
X5801125Y1379200D1*
X5784084Y1371600D1*
X5765800Y1364000D1*
X5477000Y1409600D2*
X5478175Y1402000D1*
X5480059Y1394400D1*
X5482056Y1386800D1*
X5483654Y1379200D1*
X5485329Y1371600D1*
X5487472Y1364000D1*
X5489554Y1356400D1*
X5490902Y1348800D1*
X5491358Y1341200D1*
X5490718Y1333600D1*
X5489033Y1326000D1*
X5487107Y1318400D1*
X5485533Y1310800D1*
X5483867Y1303200D1*
X5481697Y1295600D1*
X5479348Y1288000D1*
X5476974Y1280400D1*
X5474163Y1272800D1*
X5470917Y1265200D1*
X5467635Y1257600D1*
X5464930Y1250000D1*
X5463263Y1242400D1*
X5462419Y1234800D1*
X5462043Y1227200D1*
X5461890Y1219600D1*
X5461830Y1212000D1*
X5461800Y1204400D1*
X5469400Y1409600D2*
X5488008Y1402000D1*
X5502347Y1394400D1*
X5512101Y1386800D1*
X5518989Y1379200D1*
X5524734Y1371600D1*
X5530172Y1364000D1*
X5535511Y1356400D1*
X5541547Y1348800D1*
X5548511Y1341200D1*
X5555216Y1333600D1*
X5560883Y1326000D1*
X5565873Y1318400D1*
X5570821Y1310800D1*
X5575918Y1303200D1*
X5580934Y1295600D1*
X5586496Y1288000D1*
X5593622Y1280400D1*
X5602549Y1272800D1*
X5612753Y1265200D1*
X5623655Y1257600D1*
X5635120Y1250000D1*
X5647434Y1242400D1*
X5660894Y1234800D1*
X5675180Y1227200D1*
X5689800Y1219600D1*
X5309800Y1394400D2*
X5302200Y1386800D1*
X5340200Y1394400D2*
X5332889Y1386800D1*
X5326264Y1379200D1*
X5320485Y1371600D1*
X5314834Y1364000D1*
X5308560Y1356400D1*
X5301664Y1348800D1*
X5294387Y1341200D1*
X5286920Y1333600D1*
X5279371Y1326000D1*
X5271790Y1318400D1*
X5264197Y1310800D1*
X5256569Y1303200D1*
X5248673Y1295600D1*
X5239810Y1288000D1*
X5229151Y1280400D1*
X5216691Y1272800D1*
X5203400Y1265200D1*
X5104600D2*
Y1257600D1*
X5157800Y1250000D1*
X3128368Y2347531D2*
D67*
X3123539Y2357189D1*
X3113768Y2366960D1*
X3104110Y2371789D1*
X3084681D1*
X3074910Y2366960D1*
X3065251Y2357189D1*
X3060310Y2347531D1*
X3055481Y2332931D1*
Y2308560D1*
X3060310Y2294072D1*
X3065251Y2284302D1*
X3074910Y2274643D1*
X3084681Y2269702D1*
X3104110D1*
X3113768Y2274643D1*
X3123539Y2284302D1*
X3128368Y2294072D1*
X3218029Y2371677D2*
X3169512D1*
X3164682Y2327989D1*
X3169512Y2332819D1*
X3184112Y2337760D1*
X3198599D1*
X3213199Y2332819D1*
X3222970Y2323160D1*
X3227799Y2308560D1*
Y2298902D1*
X3222970Y2284302D1*
X3213199Y2274531D1*
X3198599Y2269702D1*
X3184112D1*
X3169512Y2274531D1*
X3164682Y2279472D1*
X3159741Y2289131D1*
X3644469Y161533D2*
X3634811Y156703D1*
X3625040Y146933D1*
X3620211Y137274D1*
Y117845D1*
X3625040Y108074D1*
X3634811Y98416D1*
X3644469Y93474D1*
X3659069Y88645D1*
X3683440D1*
X3697928Y93474D1*
X3707698Y98416D1*
X3717357Y108074D1*
X3722299Y117845D1*
Y137274D1*
X3717357Y146933D1*
X3707699Y156703D1*
X3697928Y161533D1*
X3634811Y251193D2*
X3625152Y246364D1*
X3620323Y231764D1*
Y222105D1*
X3625152Y207505D1*
X3639752Y197734D1*
X3664011Y192905D1*
X3688269D1*
X3707699Y197734D1*
X3717469Y207505D1*
X3722298Y222105D1*
Y226934D1*
X3717469Y241422D1*
X3707699Y251193D1*
X3693099Y256022D1*
X3688269D1*
X3673669Y251193D1*
X3664011Y241422D1*
X3659182Y226934D1*
Y222105D1*
X3664011Y207505D1*
X3673669Y197734D1*
X3688269Y192905D1*
X1543803Y236145D2*
X1534144Y231316D1*
X1524373Y221545D1*
X1519544Y211886D1*
Y192457D1*
X1524373Y182686D1*
X1534144Y173028D1*
X1543803Y168086D1*
X1558403Y163257D1*
X1582773D1*
X1597261Y168086D1*
X1607032Y173028D1*
X1616690Y182686D1*
X1621632Y192457D1*
Y211886D1*
X1616690Y221545D1*
X1607032Y231315D1*
X1597261Y236145D1*
X1519657Y291776D2*
X1524486Y277288D1*
X1534144Y272346D1*
X1543915D1*
X1553573Y277288D1*
X1558515Y286946D1*
X1563344Y306376D1*
X1568173Y320976D1*
X1577944Y330634D1*
X1587603Y335463D1*
X1602203D1*
X1611861Y330634D1*
X1616803Y325805D1*
X1621632Y311205D1*
Y291776D1*
X1616803Y277288D1*
X1611861Y272346D1*
X1602203Y267517D1*
X1587603D1*
X1577944Y272346D1*
X1568173Y282117D1*
X1563344Y296605D1*
X1558515Y316034D1*
X1553573Y325805D1*
X1543915Y330634D1*
X1534144D1*
X1524486Y325805D1*
X1519657Y311205D1*
Y291776D1*
X2897385Y241170D2*
X2887727Y236341D1*
X2877956Y226570D1*
X2873127Y216911D1*
Y197482D1*
X2877956Y187711D1*
X2887727Y178053D1*
X2897385Y173111D1*
X2911985Y168282D1*
X2936356D1*
X2950844Y173111D1*
X2960614Y178053D1*
X2970273Y187711D1*
X2975215Y197482D1*
Y216911D1*
X2970273Y226570D1*
X2960615Y236341D1*
X2950844Y241170D1*
X2907156Y335771D2*
X2921756Y330830D1*
X2931527Y321171D1*
X2936356Y306571D1*
Y301742D1*
X2931527Y287142D1*
X2921756Y277484D1*
X2907156Y272542D1*
X2902327D1*
X2887727Y277484D1*
X2878068Y287142D1*
X2873239Y301742D1*
Y306572D1*
X2878068Y321172D1*
X2887727Y330830D1*
X2907156Y335771D1*
X2931527D1*
X2955785Y330830D1*
X2970385Y321171D1*
X2975215Y306571D1*
Y296913D1*
X2970385Y282313D1*
X2960615Y277484D1*
X1406469Y1493497D2*
X1396811Y1488668D1*
X1387040Y1478897D1*
X1382211Y1469239D1*
Y1449809D1*
X1387040Y1440039D1*
X1396811Y1430380D1*
X1406469Y1425439D1*
X1421069Y1420609D1*
X1445440D1*
X1459928Y1425439D1*
X1469698Y1430380D1*
X1479357Y1440038D1*
X1484299Y1449809D1*
Y1469238D1*
X1479357Y1478897D1*
X1469699Y1488668D1*
X1459928Y1493497D1*
X1401752Y1524869D2*
X1396811Y1534640D1*
X1382323Y1549240D1*
X1484298D1*
X1382323Y1609813D2*
X1387152Y1595213D1*
X1401752Y1585442D1*
X1426011Y1580613D1*
X1440611D1*
X1464869Y1585442D1*
X1479469Y1595213D1*
X1484298Y1609813D1*
Y1619471D1*
X1479469Y1634071D1*
X1464869Y1643729D1*
X1440611Y1648671D1*
X1426011D1*
X1401752Y1643730D1*
X1387152Y1634071D1*
X1382323Y1619471D1*
Y1609813D1*
X1401752Y1643730D2*
X1464869Y1585442D1*
X3299211Y634691D2*
X3401298D1*
X3401299Y668720D1*
X3396357Y683320D1*
X3386699Y693090D1*
X3376928Y697920D1*
X3362440Y702749D1*
X3338069D1*
X3323469Y697920D1*
X3313811Y693091D1*
X3304040Y683320D1*
X3299211Y668720D1*
Y634691D1*
X3313811Y802180D2*
X3304040Y792521D1*
X3299211Y777921D1*
Y758492D1*
X3304040Y743892D1*
X3313811Y734121D1*
X3323469D1*
X3333240Y739063D1*
X3338069Y743892D1*
X3342899Y753551D1*
X3352669Y782751D1*
X3357499Y792521D1*
X3362440Y797351D1*
X3372099Y802180D1*
X3386698D1*
X3396357Y792521D1*
X3401298Y777921D1*
Y758492D1*
X3396357Y743892D1*
X3386699Y734121D1*
X3318752Y833552D2*
X3313811Y843323D1*
X3299323Y857923D1*
X3401298D1*
X2937877Y616513D2*
X3039965D1*
Y650543D1*
X3035024Y665142D1*
X3025365Y674913D1*
X3015594Y679742D1*
X3001107Y684572D1*
X2976736D1*
X2962136Y679743D1*
X2952478Y674913D1*
X2942707Y665143D1*
X2937877Y650543D1*
Y616513D1*
X2952478Y784003D2*
X2942707Y774344D1*
X2937878Y759744D1*
Y740315D1*
X2942707Y725715D1*
X2952478Y715944D1*
X2962136D1*
X2971907Y720886D1*
X2976736Y725715D1*
X2981565Y735373D1*
X2991336Y764573D1*
X2996165Y774344D1*
X3001107Y779173D1*
X3010765Y784003D1*
X3025365D1*
X3035024Y774344D1*
X3039965Y759744D1*
Y740315D1*
X3035024Y725715D1*
X3025365Y715944D1*
X2962248Y820317D2*
X2957419D1*
X2947648Y825146D1*
X2942819Y829975D1*
X2937990Y839746D1*
Y859175D1*
X2942819Y868834D1*
X2947648Y873663D1*
X2957419Y878604D1*
X2967077D1*
X2976848Y873663D1*
X2991336Y864004D1*
X3039965Y815375D1*
Y883434D1*
X313443Y2958456D2*
Y2880739D1*
X308614Y2866139D1*
X303672Y2861310D1*
X294014Y2856368D1*
X284243D1*
X274584Y2861310D1*
X269755Y2866139D1*
X264814Y2880739D1*
Y2890397D1*
X344816Y2938914D2*
X354586Y2943856D1*
X369186Y2958344D1*
Y2856368D1*
X5131932Y2555456D2*
Y2477739D1*
X5127103Y2463139D1*
X5122162Y2458310D1*
X5112503Y2453368D1*
X5102732D1*
X5093074Y2458310D1*
X5088245Y2463139D1*
X5083303Y2477739D1*
Y2487397D1*
X5182734Y2453368D2*
X5231363Y2555344D1*
X5163305D1*
X1429507Y1907256D2*
Y1950943D1*
X1424565Y1965543D1*
X1419736Y1970485D1*
X1410078Y1975314D1*
X1400307D1*
X1390648Y1970485D1*
X1385707Y1965543D1*
X1380877Y1950943D1*
Y1907256D1*
X1482965D1*
X1429507Y1941285D2*
X1482965Y1975314D1*
X1380990Y2016457D2*
Y2069803D1*
X1419848Y2040716D1*
Y2055316D1*
X1424678Y2064974D1*
X1429507Y2069803D1*
X1444107Y2074745D1*
X1453765D1*
X1468365Y2069803D1*
X1478136Y2060145D1*
X1482965Y2045545D1*
Y2030945D1*
X1478136Y2016457D1*
X1473194Y2011628D1*
X1463536Y2006686D1*
X3850393Y1536493D2*
X3894080D1*
X3908680Y1541435D1*
X3913622Y1546264D1*
X3918451Y1555923D1*
Y1565693D1*
X3913622Y1575352D1*
X3908680Y1580293D1*
X3894080Y1585123D1*
X3850393D1*
Y1483035D1*
X3884422Y1536493D2*
X3918451Y1483035D1*
X4008111Y1570523D2*
X4003282Y1580181D1*
X3988682Y1585010D1*
X3979024D1*
X3964424Y1580181D1*
X3954653Y1565581D1*
X3949824Y1541323D1*
Y1517064D1*
X3954653Y1497635D1*
X3964424Y1487864D1*
X3979024Y1483035D1*
X3983853D1*
X3998341Y1487864D1*
X4008111Y1497635D1*
X4012941Y1512235D1*
Y1517064D1*
X4008111Y1531664D1*
X3998341Y1541323D1*
X3983853Y1546152D1*
X3979024D1*
X3964424Y1541323D1*
X3954653Y1531664D1*
X3949824Y1517064D1*
X3844589Y1926827D2*
X3888276D1*
X3902876Y1931768D1*
X3907818Y1936597D1*
X3912647Y1946256D1*
Y1956027D1*
X3907818Y1965685D1*
X3902876Y1970627D1*
X3888276Y1975456D1*
X3844589D1*
Y1873368D1*
X3878618Y1926827D2*
X3912647Y1873368D1*
X3963449D2*
X4012078Y1975344D1*
X3944020D1*
X2201932Y2389456D2*
Y2316568D1*
X2206762Y2301968D1*
X2216532Y2292310D1*
X2231132Y2287368D1*
X2240791D1*
X2255391Y2292310D1*
X2265162Y2301968D1*
X2269991Y2316568D1*
Y2389456D1*
X2301363Y2369914D2*
X2311134Y2374856D1*
X2325734Y2389344D1*
Y2287368D1*
X2172432Y1231456D2*
X2240491Y1129368D1*
Y1231456D2*
X2172432Y1129368D1*
X2271863Y1211914D2*
X2281634Y1216856D1*
X2296234Y1231344D1*
Y1129368D1*
X-146063Y2308925D2*
D68*
Y2181315D1*
X-231136Y2308925D1*
Y2181315D1*
X-76524Y2266388D2*
X-88597Y2260352D1*
X-100811Y2248138D1*
X-106847Y2229888D1*
Y2217815D1*
X-100811Y2199565D1*
X-88597Y2187492D1*
X-76524Y2181315D1*
X-58274D1*
X-46061Y2187492D1*
X-33988Y2199565D1*
X-27811Y2217815D1*
Y2229888D1*
X-33988Y2248138D1*
X-46061Y2260352D1*
X-58274Y2266388D1*
X-76524D1*
X29655Y2308925D2*
Y2205602D1*
X35691Y2187492D1*
X47905Y2181315D1*
X59978D1*
X11405Y2266388D2*
X53941D1*
X99194Y2229888D2*
X172053D1*
Y2242102D1*
X166017Y2254315D1*
X159980Y2260352D1*
X147767Y2266388D1*
X129517D1*
X117444Y2260352D1*
X105230Y2248138D1*
X99194Y2229888D1*
Y2217815D1*
X105230Y2199565D1*
X117444Y2187492D1*
X129517Y2181315D1*
X147767D1*
X159980Y2187492D1*
X172053Y2199565D1*
X278092Y2248138D2*
X272056Y2260352D1*
X253806Y2266388D1*
X235556D1*
X217306Y2260352D1*
X211269Y2248138D1*
X217306Y2236065D1*
X229519Y2229888D1*
X259842Y2223852D1*
X272056Y2217815D1*
X278092Y2205602D1*
Y2199565D1*
X272056Y2187492D1*
X253806Y2181315D1*
X235556D1*
X217306Y2187492D1*
X211269Y2199565D1*
X323485Y2266388D2*
X317308Y2260211D1*
X323485Y2254175D1*
X329521Y2260211D1*
X323485Y2266388D1*
Y2193529D2*
X317308Y2187352D1*
X323485Y2181315D1*
X329521Y2187352D1*
X323485Y2193529D1*
M02*
