M48
METRIC,0000.00
T01C0.4
T02C0.9
T03C1.57
T04C2.75
T05C3.25
%
T01
X+001072Y+001697
X+000761Y+001713
X+001369Y+001568
X+001435Y+001685
X+001826Y+001822
X+002502Y+001204
X+002621Y+001188
X+002386Y+000637
X+002146Y+000637
X+002592Y+000146
X+003160Y+000474
X+003347Y+000639
X+004194Y+001216
X+004023Y+002049
X+004317Y+000291
T02
X+000534Y+002527
X+000788Y+002527
X+000788Y+002781
X+000534Y+002781
X+001042Y+002781
X+001296Y+002781
X+001296Y+002527
X+001042Y+002527
X+001550Y+002527
X+001804Y+002527
X+002058Y+002527
X+002058Y+002781
X+001804Y+002781
X+001550Y+002781
X+002312Y+002781
X+002312Y+002527
X+002566Y+002527
X+002820Y+002527
X+002820Y+002781
X+002566Y+002781
X+003074Y+002781
X+003328Y+002781
X+003328Y+002527
X+003074Y+002527
X+003582Y+002527
X+003582Y+002781
X+003836Y+002781
X+003836Y+002527
X+004090Y+002527
X+004344Y+002527
X+004344Y+002781
X+004090Y+002781
X+004598Y+002781
X+004598Y+002527
X+004852Y+002527
X+004852Y+002781
X+005106Y+002781
X+005106Y+002527
X+005360Y+002527
X+005360Y+002781
X+004634Y+001800
X+004634Y+001546
X+004634Y+001292
X+004634Y+001038
X+004380Y+001165
X+004380Y+001419
X+004380Y+001673
X+004380Y+001927
T03
X+005574Y+000708
X+005574Y+002257
T04
X+000050Y+000349
X+000050Y+002649
X+005850Y+002649
X+005850Y+000349
T05
X+005269Y+000911
X+005269Y+002054
T00
M30
